M48
METRIC,TZ
T1C0.400
T2C1.000
T3C1.040
T4C1.470
T5C2.200
%
G90
G05
T1
X38.35Y-69.
X42.22Y-67.79
X52.69Y-30.47
X54.14Y-62.98
X56.663Y-74.971
X60.91Y-30.29
X66.51Y-79.93
X66.51Y-79.93
X66.951Y-88.048
X70.788Y-59.469
X72.Y-48.84
X75.96Y-85.72
X89.91Y-59.485
X90.04Y-40.94
X90.17Y-45.68
X93.637Y-97.896
X96.63Y-41.24
X98.374Y-72.66
X99.26Y-48.3
X101.11Y-94.03
X103.22Y-93.41
X109.32Y-45.3
X109.415Y-59.485
X112.799Y-88.864
X114.9Y-45.18
X121.73Y-40.9
X123.031Y-49.716
X125.394Y-82.925
X126.631Y-34.11
X131.194Y-96.722
X133.635Y-94.028
X137.53Y-72.979
X137.7Y-87.87
X145.17Y-37.64
X145.4Y-100.186
X145.581Y-83.334
X147.825Y-59.485
X148.017Y-97.974
X153.794Y-31.753
X155.81Y-44.18
X156.44Y-68.115
X158.175Y-78.266
X158.685Y-95.33
X160.83Y-42.86
X162.81Y-47.52
X162.846Y-46.121
X164.11Y-68.71
X164.76Y-47.51
X165.616Y-84.101
X166.75Y-56.461
X168.598Y-69.622
X170.603Y-49.218
X179.403Y-73.21
X180.28Y-95.85
X180.959Y-79.36
X182.126Y-79.536
X183.725Y-100.023
X184.918Y-102.511
X185.Y-94.99
X185.271Y-99.321
X185.483Y-59.485
X185.93Y-86.764
X185.936Y-98.702
X186.879Y-87.753
X188.24Y-96.37
X188.507Y-91.624
X188.617Y-90.586
X189.316Y-91.849
X189.79Y-69.627
X190.241Y-99.418
X191.05Y-99.012
X192.01Y-97.133
X192.075Y-93.498
X192.6Y-91.82
X194.987Y-89.991
X195.606Y-97.025
X195.782Y-90.08
X195.836Y-94.05
X196.32Y-86.51
X197.21Y-91.25
X198.4Y-86.23
X200.07Y-71.63
X205.02Y-85.399
X205.212Y-59.456
X207.859Y-82.164
X208.251Y-60.447
X208.43Y-84.06
X211.2Y-47.31
X213.38Y-78.99
X213.979Y-70.201
X214.194Y-47.039
X215.375Y-82.55
X233.997Y-74.994
X246.763Y-55.214
T2
X137.96Y-101.63
X137.96Y-104.17
X140.5Y-101.63
X140.5Y-104.17
X143.04Y-101.63
X143.04Y-104.17
T3
X36.83Y-43.18
X39.211Y-62.23
X39.211Y-100.33
X39.37Y-43.18
X41.751Y-62.23
X41.751Y-100.33
X43.974Y-81.28
X46.514Y-81.28
X55.88Y-43.18
X58.42Y-43.18
X60.642Y-62.23
X60.642Y-100.33
X63.182Y-62.23
X63.182Y-100.33
X70.167Y-81.28
X72.707Y-81.28
X74.93Y-43.18
X77.47Y-43.18
X79.692Y-62.23
X79.692Y-100.33
X82.233Y-62.23
X82.233Y-100.33
X84.63Y-100.32
X89.218Y-81.28
X91.757Y-81.28
X93.98Y-43.18
X96.52Y-43.18
X98.742Y-62.23
X101.282Y-62.23
X108.268Y-81.28
X110.808Y-81.28
X113.03Y-43.18
X115.57Y-43.18
X117.792Y-62.23
X120.174Y-100.33
X120.332Y-62.23
X122.714Y-100.33
X127.318Y-81.28
X129.858Y-81.28
X132.08Y-43.18
X134.62Y-43.18
X136.842Y-62.23
X139.382Y-62.23
X146.368Y-81.28
X148.749Y-100.33
X148.908Y-81.28
X151.13Y-33.02
X151.289Y-100.33
X153.67Y-33.02
X155.892Y-62.23
X158.432Y-62.23
X165.418Y-81.28
X167.799Y-100.33
X167.958Y-81.28
X170.18Y-43.18
X170.339Y-100.33
X172.72Y-43.18
X174.942Y-62.23
X177.482Y-62.23
X184.468Y-81.28
X187.008Y-81.28
X189.23Y-43.18
X191.77Y-43.18
X193.992Y-62.23
X196.532Y-62.23
X201.136Y-100.33
X203.518Y-81.28
X203.676Y-100.33
X206.058Y-81.28
X208.28Y-43.18
X210.82Y-43.18
X213.042Y-62.23
X215.582Y-62.23
X220.186Y-100.33
X222.726Y-100.33
X224.949Y-81.28
X225.18Y-100.38
X227.33Y-43.18
X227.489Y-81.28
X229.87Y-43.18
X239.236Y-62.23
X241.776Y-62.23
X243.999Y-100.33
X246.38Y-43.18
X246.38Y-81.28
X246.539Y-100.33
X248.92Y-43.18
X248.92Y-81.28
T4
X34.29Y-35.56
X36.671Y-54.61
X36.671Y-92.71
X40.64Y-33.02
X41.434Y-73.66
X43.021Y-52.07
X43.021Y-90.17
X47.784Y-71.12
X53.34Y-35.56
X58.102Y-54.61
X58.102Y-92.71
X59.69Y-33.02
X64.453Y-52.07
X64.453Y-90.17
X67.627Y-73.66
X72.39Y-35.56
X73.977Y-71.12
X77.153Y-54.61
X77.153Y-92.71
X78.74Y-33.02
X79.534Y-92.71
X83.502Y-52.07
X83.502Y-90.17
X85.884Y-90.17
X86.677Y-73.66
X91.44Y-35.56
X93.027Y-71.12
X96.202Y-54.61
X97.79Y-33.02
X102.552Y-52.07
X105.728Y-73.66
X110.49Y-35.56
X112.078Y-71.12
X115.252Y-54.61
X116.84Y-33.02
X117.634Y-92.71
X121.602Y-52.07
X123.984Y-90.17
X124.778Y-73.66
X129.54Y-35.56
X131.128Y-71.12
X134.302Y-54.61
X135.89Y-33.02
X140.652Y-52.07
X143.828Y-73.66
X146.209Y-92.71
X149.86Y-43.18
X150.178Y-71.12
X152.559Y-90.17
X153.352Y-54.61
X156.21Y-40.64
X159.702Y-52.07
X162.878Y-73.66
X165.259Y-92.71
X167.64Y-35.56
X169.228Y-71.12
X171.609Y-90.17
X172.402Y-54.61
X173.99Y-33.02
X178.752Y-52.07
X181.928Y-73.66
X186.69Y-35.56
X188.278Y-71.12
X191.452Y-54.61
X193.04Y-33.02
X197.802Y-52.07
X198.596Y-92.71
X200.978Y-73.66
X204.946Y-90.17
X205.74Y-35.56
X207.328Y-71.12
X210.502Y-54.61
X212.09Y-33.02
X216.852Y-52.07
X217.646Y-92.71
X220.028Y-92.71
X222.409Y-73.66
X223.996Y-90.17
X224.79Y-35.56
X226.378Y-90.17
X228.759Y-71.12
X231.14Y-33.02
X236.696Y-54.61
X241.459Y-92.71
X243.046Y-52.07
X243.84Y-35.56
X243.84Y-73.66
X247.809Y-90.17
X250.19Y-33.02
X250.19Y-71.12
T5
X47.62Y-85.73
X47.625Y-47.625
X142.88Y-47.64
X142.89Y-85.73
X238.11Y-85.73
X238.12Y-47.62
T0
M30
