G04 #@! TF.FileFunction,Legend,Bot*
%FSLAX46Y46*%
G04 Gerber Fmt 4.6, Leading zero omitted, Abs format (unit mm)*
G04 Created by KiCad (PCBNEW 4.0.7) date 06/01/18 20:48:47*
%MOMM*%
%LPD*%
G01*
G04 APERTURE LIST*
%ADD10C,0.100000*%
%ADD11C,0.120000*%
%ADD12C,0.200000*%
%ADD13C,0.150000*%
%ADD14C,0.400000*%
%ADD15C,0.050000*%
G04 APERTURE END LIST*
D10*
D11*
X176980000Y-90900000D02*
X177980000Y-90900000D01*
X177980000Y-92600000D02*
X176980000Y-92600000D01*
X178000000Y-99440000D02*
X177000000Y-99440000D01*
X177000000Y-97740000D02*
X178000000Y-97740000D01*
X176650000Y-101950000D02*
X176650000Y-102950000D01*
X174950000Y-102950000D02*
X174950000Y-101950000D01*
X194600000Y-104550000D02*
X193600000Y-104550000D01*
X193600000Y-102850000D02*
X194600000Y-102850000D01*
X202250000Y-85600000D02*
X201250000Y-85600000D01*
X201250000Y-83900000D02*
X202250000Y-83900000D01*
X46000000Y-36600000D02*
X47600000Y-36600000D01*
X47600000Y-36600000D02*
X47600000Y-39200000D01*
X46000000Y-36600000D02*
X46000000Y-39200000D01*
X65000000Y-36600000D02*
X66600000Y-36600000D01*
X66600000Y-36600000D02*
X66600000Y-39200000D01*
X65000000Y-36600000D02*
X65000000Y-39200000D01*
X84200000Y-36600000D02*
X85800000Y-36600000D01*
X85800000Y-36600000D02*
X85800000Y-39200000D01*
X84200000Y-36600000D02*
X84200000Y-39200000D01*
X103200000Y-36600000D02*
X104800000Y-36600000D01*
X104800000Y-36600000D02*
X104800000Y-39200000D01*
X103200000Y-36600000D02*
X103200000Y-39200000D01*
X122200000Y-36600000D02*
X123800000Y-36600000D01*
X123800000Y-36600000D02*
X123800000Y-39200000D01*
X122200000Y-36600000D02*
X122200000Y-39200000D01*
X124400000Y-36600000D02*
X126000000Y-36600000D01*
X126000000Y-36600000D02*
X126000000Y-39200000D01*
X124400000Y-36600000D02*
X124400000Y-39200000D01*
X160200000Y-36600000D02*
X161800000Y-36600000D01*
X161800000Y-36600000D02*
X161800000Y-39200000D01*
X160200000Y-36600000D02*
X160200000Y-39200000D01*
X179400000Y-36600000D02*
X181000000Y-36600000D01*
X181000000Y-36600000D02*
X181000000Y-39200000D01*
X179400000Y-36600000D02*
X179400000Y-39200000D01*
X198400000Y-36600000D02*
X200000000Y-36600000D01*
X200000000Y-36600000D02*
X200000000Y-39200000D01*
X198400000Y-36600000D02*
X198400000Y-39200000D01*
X217400000Y-36600000D02*
X219000000Y-36600000D01*
X219000000Y-36600000D02*
X219000000Y-39200000D01*
X217400000Y-36600000D02*
X217400000Y-39200000D01*
X236400000Y-36600000D02*
X238000000Y-36600000D01*
X238000000Y-36600000D02*
X238000000Y-39200000D01*
X236400000Y-36600000D02*
X236400000Y-39200000D01*
X255200000Y-36600000D02*
X256800000Y-36600000D01*
X256800000Y-36600000D02*
X256800000Y-39200000D01*
X255200000Y-36600000D02*
X255200000Y-39200000D01*
X47600000Y-55600000D02*
X49200000Y-55600000D01*
X49200000Y-55600000D02*
X49200000Y-58200000D01*
X47600000Y-55600000D02*
X47600000Y-58200000D01*
X69400000Y-55600000D02*
X71000000Y-55600000D01*
X71000000Y-55600000D02*
X71000000Y-58200000D01*
X69400000Y-55600000D02*
X69400000Y-58200000D01*
X88800000Y-55600000D02*
X90400000Y-55600000D01*
X90400000Y-55600000D02*
X90400000Y-58200000D01*
X88800000Y-55600000D02*
X88800000Y-58200000D01*
X107800000Y-55600000D02*
X109400000Y-55600000D01*
X109400000Y-55600000D02*
X109400000Y-58200000D01*
X107800000Y-55600000D02*
X107800000Y-58200000D01*
X127000000Y-55600000D02*
X128600000Y-55600000D01*
X128600000Y-55600000D02*
X128600000Y-58200000D01*
X127000000Y-55600000D02*
X127000000Y-58200000D01*
X146000000Y-55600000D02*
X147600000Y-55600000D01*
X147600000Y-55600000D02*
X147600000Y-58200000D01*
X146000000Y-55600000D02*
X146000000Y-58200000D01*
X165000000Y-55600000D02*
X166600000Y-55600000D01*
X166600000Y-55600000D02*
X166600000Y-58200000D01*
X165000000Y-55600000D02*
X165000000Y-58200000D01*
X184000000Y-55600000D02*
X185600000Y-55600000D01*
X185600000Y-55600000D02*
X185600000Y-58200000D01*
X184000000Y-55600000D02*
X184000000Y-58200000D01*
X203000000Y-55600000D02*
X204600000Y-55600000D01*
X204600000Y-55600000D02*
X204600000Y-58200000D01*
X203000000Y-55600000D02*
X203000000Y-58200000D01*
X222200000Y-55600000D02*
X223800000Y-55600000D01*
X223800000Y-55600000D02*
X223800000Y-58200000D01*
X222200000Y-55600000D02*
X222200000Y-58200000D01*
X248400000Y-55600000D02*
X250000000Y-55600000D01*
X250000000Y-55600000D02*
X250000000Y-58200000D01*
X248400000Y-55600000D02*
X248400000Y-58200000D01*
X53200000Y-74600000D02*
X54800000Y-74600000D01*
X54800000Y-74600000D02*
X54800000Y-77200000D01*
X53200000Y-74600000D02*
X53200000Y-77200000D01*
X79200000Y-74600000D02*
X80800000Y-74600000D01*
X80800000Y-74600000D02*
X80800000Y-77200000D01*
X79200000Y-74600000D02*
X79200000Y-77200000D01*
X98200000Y-74600000D02*
X99800000Y-74600000D01*
X99800000Y-74600000D02*
X99800000Y-77200000D01*
X98200000Y-74600000D02*
X98200000Y-77200000D01*
X117400000Y-74600000D02*
X119000000Y-74600000D01*
X119000000Y-74600000D02*
X119000000Y-77200000D01*
X117400000Y-74600000D02*
X117400000Y-77200000D01*
X136400000Y-74600000D02*
X138000000Y-74600000D01*
X138000000Y-74600000D02*
X138000000Y-77200000D01*
X136400000Y-74600000D02*
X136400000Y-77200000D01*
X155600000Y-74600000D02*
X157200000Y-74600000D01*
X157200000Y-74600000D02*
X157200000Y-77200000D01*
X155600000Y-74600000D02*
X155600000Y-77200000D01*
X174400000Y-74600000D02*
X176000000Y-74600000D01*
X176000000Y-74600000D02*
X176000000Y-77200000D01*
X174400000Y-74600000D02*
X174400000Y-77200000D01*
X193400000Y-74600000D02*
X195000000Y-74600000D01*
X195000000Y-74600000D02*
X195000000Y-77200000D01*
X193400000Y-74600000D02*
X193400000Y-77200000D01*
X212800000Y-74600000D02*
X214400000Y-74600000D01*
X214400000Y-74600000D02*
X214400000Y-77200000D01*
X212800000Y-74600000D02*
X212800000Y-77200000D01*
X234200000Y-74600000D02*
X235800000Y-74600000D01*
X235800000Y-74600000D02*
X235800000Y-77200000D01*
X234200000Y-74600000D02*
X234200000Y-77200000D01*
X255400000Y-74600000D02*
X257000000Y-74600000D01*
X257000000Y-74600000D02*
X257000000Y-77200000D01*
X255400000Y-74600000D02*
X255400000Y-77200000D01*
X48200000Y-93600000D02*
X49800000Y-93600000D01*
X49800000Y-93600000D02*
X49800000Y-96200000D01*
X48200000Y-93600000D02*
X48200000Y-96200000D01*
X69800000Y-93600000D02*
X71400000Y-93600000D01*
X71400000Y-93600000D02*
X71400000Y-96200000D01*
X69800000Y-93600000D02*
X69800000Y-96200000D01*
X91200000Y-93600000D02*
X92800000Y-93600000D01*
X92800000Y-93600000D02*
X92800000Y-96200000D01*
X91200000Y-93600000D02*
X91200000Y-96200000D01*
X129400000Y-93600000D02*
X131000000Y-93600000D01*
X131000000Y-93600000D02*
X131000000Y-96200000D01*
X129400000Y-93600000D02*
X129400000Y-96200000D01*
X158000000Y-93600000D02*
X159600000Y-93600000D01*
X159600000Y-93600000D02*
X159600000Y-96200000D01*
X158000000Y-93600000D02*
X158000000Y-96200000D01*
X159800000Y-93600000D02*
X161400000Y-93600000D01*
X161400000Y-93600000D02*
X161400000Y-96200000D01*
X159800000Y-93600000D02*
X159800000Y-96200000D01*
X210200000Y-93600000D02*
X211800000Y-93600000D01*
X211800000Y-93600000D02*
X211800000Y-96200000D01*
X210200000Y-93600000D02*
X210200000Y-96200000D01*
X231600000Y-93600000D02*
X233200000Y-93600000D01*
X233200000Y-93600000D02*
X233200000Y-96200000D01*
X231600000Y-93600000D02*
X231600000Y-96200000D01*
X253200000Y-93600000D02*
X254800000Y-93600000D01*
X254800000Y-93600000D02*
X254800000Y-96200000D01*
X253200000Y-93600000D02*
X253200000Y-96200000D01*
D12*
X118200000Y-84600000D02*
X118200000Y-86600000D01*
X118200000Y-86600000D02*
X120200000Y-86600000D01*
X120200000Y-86600000D02*
X120200000Y-85100000D01*
X120200000Y-85100000D02*
X119700000Y-84600000D01*
X119700000Y-84600000D02*
X118200000Y-84600000D01*
X118200000Y-83100000D02*
X120200000Y-83100000D01*
X121700000Y-85100000D02*
X121700000Y-86100000D01*
X118200000Y-88100000D02*
X120200000Y-88100000D01*
X116700000Y-85100000D02*
X116700000Y-86100000D01*
X165600000Y-84600000D02*
X165600000Y-86600000D01*
X165600000Y-86600000D02*
X167600000Y-86600000D01*
X167600000Y-86600000D02*
X167600000Y-85100000D01*
X167600000Y-85100000D02*
X167100000Y-84600000D01*
X167100000Y-84600000D02*
X165600000Y-84600000D01*
X165600000Y-83100000D02*
X167600000Y-83100000D01*
X169100000Y-85100000D02*
X169100000Y-86100000D01*
X165600000Y-88100000D02*
X167600000Y-88100000D01*
X164100000Y-85100000D02*
X164100000Y-86100000D01*
X218000000Y-84600000D02*
X218000000Y-86600000D01*
X218000000Y-86600000D02*
X220000000Y-86600000D01*
X220000000Y-86600000D02*
X220000000Y-85100000D01*
X220000000Y-85100000D02*
X219500000Y-84600000D01*
X219500000Y-84600000D02*
X218000000Y-84600000D01*
X218000000Y-83100000D02*
X220000000Y-83100000D01*
X221500000Y-85100000D02*
X221500000Y-86100000D01*
X218000000Y-88100000D02*
X220000000Y-88100000D01*
X216500000Y-85100000D02*
X216500000Y-86100000D01*
X218000000Y-46600000D02*
X218000000Y-48600000D01*
X218000000Y-48600000D02*
X220000000Y-48600000D01*
X220000000Y-48600000D02*
X220000000Y-47100000D01*
X220000000Y-47100000D02*
X219500000Y-46600000D01*
X219500000Y-46600000D02*
X218000000Y-46600000D01*
X218000000Y-45100000D02*
X220000000Y-45100000D01*
X221500000Y-47100000D02*
X221500000Y-48100000D01*
X218000000Y-50100000D02*
X220000000Y-50100000D01*
X216500000Y-47100000D02*
X216500000Y-48100000D01*
X165800000Y-46600000D02*
X165800000Y-48600000D01*
X165800000Y-48600000D02*
X167800000Y-48600000D01*
X167800000Y-48600000D02*
X167800000Y-47100000D01*
X167800000Y-47100000D02*
X167300000Y-46600000D01*
X167300000Y-46600000D02*
X165800000Y-46600000D01*
X165800000Y-45100000D02*
X167800000Y-45100000D01*
X169300000Y-47100000D02*
X169300000Y-48100000D01*
X165800000Y-50100000D02*
X167800000Y-50100000D01*
X164300000Y-47100000D02*
X164300000Y-48100000D01*
X118200000Y-46600000D02*
X118200000Y-48600000D01*
X118200000Y-48600000D02*
X120200000Y-48600000D01*
X120200000Y-48600000D02*
X120200000Y-47100000D01*
X120200000Y-47100000D02*
X119700000Y-46600000D01*
X119700000Y-46600000D02*
X118200000Y-46600000D01*
X118200000Y-45100000D02*
X120200000Y-45100000D01*
X121700000Y-47100000D02*
X121700000Y-48100000D01*
X118200000Y-50100000D02*
X120200000Y-50100000D01*
X116700000Y-47100000D02*
X116700000Y-48100000D01*
X65600000Y-46600000D02*
X65600000Y-48600000D01*
X65600000Y-48600000D02*
X67600000Y-48600000D01*
X67600000Y-48600000D02*
X67600000Y-47100000D01*
X67600000Y-47100000D02*
X67100000Y-46600000D01*
X67100000Y-46600000D02*
X65600000Y-46600000D01*
X65600000Y-45100000D02*
X67600000Y-45100000D01*
X69100000Y-47100000D02*
X69100000Y-48100000D01*
X65600000Y-50100000D02*
X67600000Y-50100000D01*
X64100000Y-47100000D02*
X64100000Y-48100000D01*
X65600000Y-84600000D02*
X65600000Y-86600000D01*
X65600000Y-86600000D02*
X67600000Y-86600000D01*
X67600000Y-86600000D02*
X67600000Y-85100000D01*
X67600000Y-85100000D02*
X67100000Y-84600000D01*
X67100000Y-84600000D02*
X65600000Y-84600000D01*
X65600000Y-83100000D02*
X67600000Y-83100000D01*
X69100000Y-85100000D02*
X69100000Y-86100000D01*
X65600000Y-88100000D02*
X67600000Y-88100000D01*
X64100000Y-85100000D02*
X64100000Y-86100000D01*
D11*
X30372000Y-75306000D02*
X31632000Y-75306000D01*
X37192000Y-75306000D02*
X35932000Y-75306000D01*
X30372000Y-79066000D02*
X30372000Y-75306000D01*
X37192000Y-81316000D02*
X37192000Y-75306000D01*
X33400000Y-70680000D02*
X34600000Y-70680000D01*
X34600000Y-68920000D02*
X33400000Y-68920000D01*
X144880000Y-41600000D02*
X144880000Y-40400000D01*
X143120000Y-40400000D02*
X143120000Y-41600000D01*
X142880000Y-41600000D02*
X142880000Y-40400000D01*
X141120000Y-40400000D02*
X141120000Y-41600000D01*
X100880000Y-96250000D02*
X100880000Y-95050000D01*
X99120000Y-95050000D02*
X99120000Y-96250000D01*
X194750000Y-85630000D02*
X195950000Y-85630000D01*
X195950000Y-83870000D02*
X194750000Y-83870000D01*
X109200000Y-97600000D02*
X108750000Y-98050000D01*
X105800000Y-97600000D02*
X106250000Y-98050000D01*
X105800000Y-93000000D02*
X106250000Y-92550000D01*
X109200000Y-93000000D02*
X108750000Y-92550000D01*
X104750000Y-94300000D02*
X104750000Y-96300000D01*
X108750000Y-98050000D02*
X106250000Y-98050000D01*
X110250000Y-94300000D02*
X110250000Y-96300000D01*
X108750000Y-92550000D02*
X106250000Y-92550000D01*
D12*
X175825000Y-97570000D02*
X179575000Y-97570000D01*
X179575000Y-97570000D02*
X179575000Y-92820000D01*
X179575000Y-92820000D02*
X175825000Y-92820000D01*
X175825000Y-92820000D02*
X175825000Y-97570000D01*
D11*
X189000000Y-102850000D02*
X190000000Y-102850000D01*
X190000000Y-104550000D02*
X189000000Y-104550000D01*
X197950000Y-99700000D02*
X197950000Y-98700000D01*
X199650000Y-98700000D02*
X199650000Y-99700000D01*
X185800000Y-104550000D02*
X184800000Y-104550000D01*
X184800000Y-102850000D02*
X185800000Y-102850000D01*
X184625000Y-83725000D02*
X185625000Y-83725000D01*
X185625000Y-85425000D02*
X184625000Y-85425000D01*
D13*
X193825000Y-100050000D02*
X193250000Y-100050000D01*
X193825000Y-89700000D02*
X193150000Y-89700000D01*
X183475000Y-89700000D02*
X184150000Y-89700000D01*
X183475000Y-100050000D02*
X184150000Y-100050000D01*
X193825000Y-100050000D02*
X193825000Y-99375000D01*
X183475000Y-100050000D02*
X183475000Y-99375000D01*
X183475000Y-89700000D02*
X183475000Y-90375000D01*
X193825000Y-89700000D02*
X193825000Y-90375000D01*
X193250000Y-100050000D02*
X193250000Y-101325000D01*
D14*
X140580200Y-36842000D02*
G75*
G03X140580200Y-36842000I-203200J0D01*
G01*
D12*
X138904000Y-27088000D02*
X146676000Y-27088000D01*
X146676000Y-27088000D02*
X146676000Y-28383000D01*
X138904000Y-27088000D02*
X138904000Y-28383000D01*
D13*
X177646666Y-90607143D02*
X177694285Y-90654762D01*
X177837142Y-90702381D01*
X177932380Y-90702381D01*
X178075238Y-90654762D01*
X178170476Y-90559524D01*
X178218095Y-90464286D01*
X178265714Y-90273810D01*
X178265714Y-90130952D01*
X178218095Y-89940476D01*
X178170476Y-89845238D01*
X178075238Y-89750000D01*
X177932380Y-89702381D01*
X177837142Y-89702381D01*
X177694285Y-89750000D01*
X177646666Y-89797619D01*
X176694285Y-90702381D02*
X177265714Y-90702381D01*
X176980000Y-90702381D02*
X176980000Y-89702381D01*
X177075238Y-89845238D01*
X177170476Y-89940476D01*
X177265714Y-89988095D01*
X177666666Y-100447143D02*
X177714285Y-100494762D01*
X177857142Y-100542381D01*
X177952380Y-100542381D01*
X178095238Y-100494762D01*
X178190476Y-100399524D01*
X178238095Y-100304286D01*
X178285714Y-100113810D01*
X178285714Y-99970952D01*
X178238095Y-99780476D01*
X178190476Y-99685238D01*
X178095238Y-99590000D01*
X177952380Y-99542381D01*
X177857142Y-99542381D01*
X177714285Y-99590000D01*
X177666666Y-99637619D01*
X177285714Y-99637619D02*
X177238095Y-99590000D01*
X177142857Y-99542381D01*
X176904761Y-99542381D01*
X176809523Y-99590000D01*
X176761904Y-99637619D01*
X176714285Y-99732857D01*
X176714285Y-99828095D01*
X176761904Y-99970952D01*
X177333333Y-100542381D01*
X176714285Y-100542381D01*
X177657143Y-102283334D02*
X177704762Y-102235715D01*
X177752381Y-102092858D01*
X177752381Y-101997620D01*
X177704762Y-101854762D01*
X177609524Y-101759524D01*
X177514286Y-101711905D01*
X177323810Y-101664286D01*
X177180952Y-101664286D01*
X176990476Y-101711905D01*
X176895238Y-101759524D01*
X176800000Y-101854762D01*
X176752381Y-101997620D01*
X176752381Y-102092858D01*
X176800000Y-102235715D01*
X176847619Y-102283334D01*
X176752381Y-102616667D02*
X176752381Y-103235715D01*
X177133333Y-102902381D01*
X177133333Y-103045239D01*
X177180952Y-103140477D01*
X177228571Y-103188096D01*
X177323810Y-103235715D01*
X177561905Y-103235715D01*
X177657143Y-103188096D01*
X177704762Y-103140477D01*
X177752381Y-103045239D01*
X177752381Y-102759524D01*
X177704762Y-102664286D01*
X177657143Y-102616667D01*
X194266666Y-105557143D02*
X194314285Y-105604762D01*
X194457142Y-105652381D01*
X194552380Y-105652381D01*
X194695238Y-105604762D01*
X194790476Y-105509524D01*
X194838095Y-105414286D01*
X194885714Y-105223810D01*
X194885714Y-105080952D01*
X194838095Y-104890476D01*
X194790476Y-104795238D01*
X194695238Y-104700000D01*
X194552380Y-104652381D01*
X194457142Y-104652381D01*
X194314285Y-104700000D01*
X194266666Y-104747619D01*
X193409523Y-104985714D02*
X193409523Y-105652381D01*
X193647619Y-104604762D02*
X193885714Y-105319048D01*
X193266666Y-105319048D01*
X201916666Y-86607143D02*
X201964285Y-86654762D01*
X202107142Y-86702381D01*
X202202380Y-86702381D01*
X202345238Y-86654762D01*
X202440476Y-86559524D01*
X202488095Y-86464286D01*
X202535714Y-86273810D01*
X202535714Y-86130952D01*
X202488095Y-85940476D01*
X202440476Y-85845238D01*
X202345238Y-85750000D01*
X202202380Y-85702381D01*
X202107142Y-85702381D01*
X201964285Y-85750000D01*
X201916666Y-85797619D01*
X201011904Y-85702381D02*
X201488095Y-85702381D01*
X201535714Y-86178571D01*
X201488095Y-86130952D01*
X201392857Y-86083333D01*
X201154761Y-86083333D01*
X201059523Y-86130952D01*
X201011904Y-86178571D01*
X200964285Y-86273810D01*
X200964285Y-86511905D01*
X201011904Y-86607143D01*
X201059523Y-86654762D01*
X201154761Y-86702381D01*
X201392857Y-86702381D01*
X201488095Y-86654762D01*
X201535714Y-86607143D01*
X45652381Y-37461905D02*
X44652381Y-37461905D01*
X44652381Y-37700000D01*
X44700000Y-37842858D01*
X44795238Y-37938096D01*
X44890476Y-37985715D01*
X45080952Y-38033334D01*
X45223810Y-38033334D01*
X45414286Y-37985715D01*
X45509524Y-37938096D01*
X45604762Y-37842858D01*
X45652381Y-37700000D01*
X45652381Y-37461905D01*
X45652381Y-38985715D02*
X45652381Y-38414286D01*
X45652381Y-38700000D02*
X44652381Y-38700000D01*
X44795238Y-38604762D01*
X44890476Y-38509524D01*
X44938095Y-38414286D01*
X64652381Y-37461905D02*
X63652381Y-37461905D01*
X63652381Y-37700000D01*
X63700000Y-37842858D01*
X63795238Y-37938096D01*
X63890476Y-37985715D01*
X64080952Y-38033334D01*
X64223810Y-38033334D01*
X64414286Y-37985715D01*
X64509524Y-37938096D01*
X64604762Y-37842858D01*
X64652381Y-37700000D01*
X64652381Y-37461905D01*
X63747619Y-38414286D02*
X63700000Y-38461905D01*
X63652381Y-38557143D01*
X63652381Y-38795239D01*
X63700000Y-38890477D01*
X63747619Y-38938096D01*
X63842857Y-38985715D01*
X63938095Y-38985715D01*
X64080952Y-38938096D01*
X64652381Y-38366667D01*
X64652381Y-38985715D01*
X83852381Y-37461905D02*
X82852381Y-37461905D01*
X82852381Y-37700000D01*
X82900000Y-37842858D01*
X82995238Y-37938096D01*
X83090476Y-37985715D01*
X83280952Y-38033334D01*
X83423810Y-38033334D01*
X83614286Y-37985715D01*
X83709524Y-37938096D01*
X83804762Y-37842858D01*
X83852381Y-37700000D01*
X83852381Y-37461905D01*
X82852381Y-38366667D02*
X82852381Y-38985715D01*
X83233333Y-38652381D01*
X83233333Y-38795239D01*
X83280952Y-38890477D01*
X83328571Y-38938096D01*
X83423810Y-38985715D01*
X83661905Y-38985715D01*
X83757143Y-38938096D01*
X83804762Y-38890477D01*
X83852381Y-38795239D01*
X83852381Y-38509524D01*
X83804762Y-38414286D01*
X83757143Y-38366667D01*
X102852381Y-37461905D02*
X101852381Y-37461905D01*
X101852381Y-37700000D01*
X101900000Y-37842858D01*
X101995238Y-37938096D01*
X102090476Y-37985715D01*
X102280952Y-38033334D01*
X102423810Y-38033334D01*
X102614286Y-37985715D01*
X102709524Y-37938096D01*
X102804762Y-37842858D01*
X102852381Y-37700000D01*
X102852381Y-37461905D01*
X102185714Y-38890477D02*
X102852381Y-38890477D01*
X101804762Y-38652381D02*
X102519048Y-38414286D01*
X102519048Y-39033334D01*
X121852381Y-37461905D02*
X120852381Y-37461905D01*
X120852381Y-37700000D01*
X120900000Y-37842858D01*
X120995238Y-37938096D01*
X121090476Y-37985715D01*
X121280952Y-38033334D01*
X121423810Y-38033334D01*
X121614286Y-37985715D01*
X121709524Y-37938096D01*
X121804762Y-37842858D01*
X121852381Y-37700000D01*
X121852381Y-37461905D01*
X120852381Y-38938096D02*
X120852381Y-38461905D01*
X121328571Y-38414286D01*
X121280952Y-38461905D01*
X121233333Y-38557143D01*
X121233333Y-38795239D01*
X121280952Y-38890477D01*
X121328571Y-38938096D01*
X121423810Y-38985715D01*
X121661905Y-38985715D01*
X121757143Y-38938096D01*
X121804762Y-38890477D01*
X121852381Y-38795239D01*
X121852381Y-38557143D01*
X121804762Y-38461905D01*
X121757143Y-38414286D01*
X124052381Y-37461905D02*
X123052381Y-37461905D01*
X123052381Y-37700000D01*
X123100000Y-37842858D01*
X123195238Y-37938096D01*
X123290476Y-37985715D01*
X123480952Y-38033334D01*
X123623810Y-38033334D01*
X123814286Y-37985715D01*
X123909524Y-37938096D01*
X124004762Y-37842858D01*
X124052381Y-37700000D01*
X124052381Y-37461905D01*
X123052381Y-38890477D02*
X123052381Y-38700000D01*
X123100000Y-38604762D01*
X123147619Y-38557143D01*
X123290476Y-38461905D01*
X123480952Y-38414286D01*
X123861905Y-38414286D01*
X123957143Y-38461905D01*
X124004762Y-38509524D01*
X124052381Y-38604762D01*
X124052381Y-38795239D01*
X124004762Y-38890477D01*
X123957143Y-38938096D01*
X123861905Y-38985715D01*
X123623810Y-38985715D01*
X123528571Y-38938096D01*
X123480952Y-38890477D01*
X123433333Y-38795239D01*
X123433333Y-38604762D01*
X123480952Y-38509524D01*
X123528571Y-38461905D01*
X123623810Y-38414286D01*
X159852381Y-37461905D02*
X158852381Y-37461905D01*
X158852381Y-37700000D01*
X158900000Y-37842858D01*
X158995238Y-37938096D01*
X159090476Y-37985715D01*
X159280952Y-38033334D01*
X159423810Y-38033334D01*
X159614286Y-37985715D01*
X159709524Y-37938096D01*
X159804762Y-37842858D01*
X159852381Y-37700000D01*
X159852381Y-37461905D01*
X158852381Y-38366667D02*
X158852381Y-39033334D01*
X159852381Y-38604762D01*
X179052381Y-37461905D02*
X178052381Y-37461905D01*
X178052381Y-37700000D01*
X178100000Y-37842858D01*
X178195238Y-37938096D01*
X178290476Y-37985715D01*
X178480952Y-38033334D01*
X178623810Y-38033334D01*
X178814286Y-37985715D01*
X178909524Y-37938096D01*
X179004762Y-37842858D01*
X179052381Y-37700000D01*
X179052381Y-37461905D01*
X178480952Y-38604762D02*
X178433333Y-38509524D01*
X178385714Y-38461905D01*
X178290476Y-38414286D01*
X178242857Y-38414286D01*
X178147619Y-38461905D01*
X178100000Y-38509524D01*
X178052381Y-38604762D01*
X178052381Y-38795239D01*
X178100000Y-38890477D01*
X178147619Y-38938096D01*
X178242857Y-38985715D01*
X178290476Y-38985715D01*
X178385714Y-38938096D01*
X178433333Y-38890477D01*
X178480952Y-38795239D01*
X178480952Y-38604762D01*
X178528571Y-38509524D01*
X178576190Y-38461905D01*
X178671429Y-38414286D01*
X178861905Y-38414286D01*
X178957143Y-38461905D01*
X179004762Y-38509524D01*
X179052381Y-38604762D01*
X179052381Y-38795239D01*
X179004762Y-38890477D01*
X178957143Y-38938096D01*
X178861905Y-38985715D01*
X178671429Y-38985715D01*
X178576190Y-38938096D01*
X178528571Y-38890477D01*
X178480952Y-38795239D01*
X198052381Y-37461905D02*
X197052381Y-37461905D01*
X197052381Y-37700000D01*
X197100000Y-37842858D01*
X197195238Y-37938096D01*
X197290476Y-37985715D01*
X197480952Y-38033334D01*
X197623810Y-38033334D01*
X197814286Y-37985715D01*
X197909524Y-37938096D01*
X198004762Y-37842858D01*
X198052381Y-37700000D01*
X198052381Y-37461905D01*
X198052381Y-38509524D02*
X198052381Y-38700000D01*
X198004762Y-38795239D01*
X197957143Y-38842858D01*
X197814286Y-38938096D01*
X197623810Y-38985715D01*
X197242857Y-38985715D01*
X197147619Y-38938096D01*
X197100000Y-38890477D01*
X197052381Y-38795239D01*
X197052381Y-38604762D01*
X197100000Y-38509524D01*
X197147619Y-38461905D01*
X197242857Y-38414286D01*
X197480952Y-38414286D01*
X197576190Y-38461905D01*
X197623810Y-38509524D01*
X197671429Y-38604762D01*
X197671429Y-38795239D01*
X197623810Y-38890477D01*
X197576190Y-38938096D01*
X197480952Y-38985715D01*
X217052381Y-36985714D02*
X216052381Y-36985714D01*
X216052381Y-37223809D01*
X216100000Y-37366667D01*
X216195238Y-37461905D01*
X216290476Y-37509524D01*
X216480952Y-37557143D01*
X216623810Y-37557143D01*
X216814286Y-37509524D01*
X216909524Y-37461905D01*
X217004762Y-37366667D01*
X217052381Y-37223809D01*
X217052381Y-36985714D01*
X217052381Y-38509524D02*
X217052381Y-37938095D01*
X217052381Y-38223809D02*
X216052381Y-38223809D01*
X216195238Y-38128571D01*
X216290476Y-38033333D01*
X216338095Y-37938095D01*
X216052381Y-39128571D02*
X216052381Y-39223810D01*
X216100000Y-39319048D01*
X216147619Y-39366667D01*
X216242857Y-39414286D01*
X216433333Y-39461905D01*
X216671429Y-39461905D01*
X216861905Y-39414286D01*
X216957143Y-39366667D01*
X217004762Y-39319048D01*
X217052381Y-39223810D01*
X217052381Y-39128571D01*
X217004762Y-39033333D01*
X216957143Y-38985714D01*
X216861905Y-38938095D01*
X216671429Y-38890476D01*
X216433333Y-38890476D01*
X216242857Y-38938095D01*
X216147619Y-38985714D01*
X216100000Y-39033333D01*
X216052381Y-39128571D01*
X236052381Y-36985714D02*
X235052381Y-36985714D01*
X235052381Y-37223809D01*
X235100000Y-37366667D01*
X235195238Y-37461905D01*
X235290476Y-37509524D01*
X235480952Y-37557143D01*
X235623810Y-37557143D01*
X235814286Y-37509524D01*
X235909524Y-37461905D01*
X236004762Y-37366667D01*
X236052381Y-37223809D01*
X236052381Y-36985714D01*
X236052381Y-38509524D02*
X236052381Y-37938095D01*
X236052381Y-38223809D02*
X235052381Y-38223809D01*
X235195238Y-38128571D01*
X235290476Y-38033333D01*
X235338095Y-37938095D01*
X236052381Y-39461905D02*
X236052381Y-38890476D01*
X236052381Y-39176190D02*
X235052381Y-39176190D01*
X235195238Y-39080952D01*
X235290476Y-38985714D01*
X235338095Y-38890476D01*
X254852381Y-36985714D02*
X253852381Y-36985714D01*
X253852381Y-37223809D01*
X253900000Y-37366667D01*
X253995238Y-37461905D01*
X254090476Y-37509524D01*
X254280952Y-37557143D01*
X254423810Y-37557143D01*
X254614286Y-37509524D01*
X254709524Y-37461905D01*
X254804762Y-37366667D01*
X254852381Y-37223809D01*
X254852381Y-36985714D01*
X254852381Y-38509524D02*
X254852381Y-37938095D01*
X254852381Y-38223809D02*
X253852381Y-38223809D01*
X253995238Y-38128571D01*
X254090476Y-38033333D01*
X254138095Y-37938095D01*
X253947619Y-38890476D02*
X253900000Y-38938095D01*
X253852381Y-39033333D01*
X253852381Y-39271429D01*
X253900000Y-39366667D01*
X253947619Y-39414286D01*
X254042857Y-39461905D01*
X254138095Y-39461905D01*
X254280952Y-39414286D01*
X254852381Y-38842857D01*
X254852381Y-39461905D01*
X47252381Y-55985714D02*
X46252381Y-55985714D01*
X46252381Y-56223809D01*
X46300000Y-56366667D01*
X46395238Y-56461905D01*
X46490476Y-56509524D01*
X46680952Y-56557143D01*
X46823810Y-56557143D01*
X47014286Y-56509524D01*
X47109524Y-56461905D01*
X47204762Y-56366667D01*
X47252381Y-56223809D01*
X47252381Y-55985714D01*
X47252381Y-57509524D02*
X47252381Y-56938095D01*
X47252381Y-57223809D02*
X46252381Y-57223809D01*
X46395238Y-57128571D01*
X46490476Y-57033333D01*
X46538095Y-56938095D01*
X46252381Y-57842857D02*
X46252381Y-58461905D01*
X46633333Y-58128571D01*
X46633333Y-58271429D01*
X46680952Y-58366667D01*
X46728571Y-58414286D01*
X46823810Y-58461905D01*
X47061905Y-58461905D01*
X47157143Y-58414286D01*
X47204762Y-58366667D01*
X47252381Y-58271429D01*
X47252381Y-57985714D01*
X47204762Y-57890476D01*
X47157143Y-57842857D01*
X69052381Y-55985714D02*
X68052381Y-55985714D01*
X68052381Y-56223809D01*
X68100000Y-56366667D01*
X68195238Y-56461905D01*
X68290476Y-56509524D01*
X68480952Y-56557143D01*
X68623810Y-56557143D01*
X68814286Y-56509524D01*
X68909524Y-56461905D01*
X69004762Y-56366667D01*
X69052381Y-56223809D01*
X69052381Y-55985714D01*
X69052381Y-57509524D02*
X69052381Y-56938095D01*
X69052381Y-57223809D02*
X68052381Y-57223809D01*
X68195238Y-57128571D01*
X68290476Y-57033333D01*
X68338095Y-56938095D01*
X68385714Y-58366667D02*
X69052381Y-58366667D01*
X68004762Y-58128571D02*
X68719048Y-57890476D01*
X68719048Y-58509524D01*
X88452381Y-55985714D02*
X87452381Y-55985714D01*
X87452381Y-56223809D01*
X87500000Y-56366667D01*
X87595238Y-56461905D01*
X87690476Y-56509524D01*
X87880952Y-56557143D01*
X88023810Y-56557143D01*
X88214286Y-56509524D01*
X88309524Y-56461905D01*
X88404762Y-56366667D01*
X88452381Y-56223809D01*
X88452381Y-55985714D01*
X88452381Y-57509524D02*
X88452381Y-56938095D01*
X88452381Y-57223809D02*
X87452381Y-57223809D01*
X87595238Y-57128571D01*
X87690476Y-57033333D01*
X87738095Y-56938095D01*
X87452381Y-58414286D02*
X87452381Y-57938095D01*
X87928571Y-57890476D01*
X87880952Y-57938095D01*
X87833333Y-58033333D01*
X87833333Y-58271429D01*
X87880952Y-58366667D01*
X87928571Y-58414286D01*
X88023810Y-58461905D01*
X88261905Y-58461905D01*
X88357143Y-58414286D01*
X88404762Y-58366667D01*
X88452381Y-58271429D01*
X88452381Y-58033333D01*
X88404762Y-57938095D01*
X88357143Y-57890476D01*
X107452381Y-55985714D02*
X106452381Y-55985714D01*
X106452381Y-56223809D01*
X106500000Y-56366667D01*
X106595238Y-56461905D01*
X106690476Y-56509524D01*
X106880952Y-56557143D01*
X107023810Y-56557143D01*
X107214286Y-56509524D01*
X107309524Y-56461905D01*
X107404762Y-56366667D01*
X107452381Y-56223809D01*
X107452381Y-55985714D01*
X107452381Y-57509524D02*
X107452381Y-56938095D01*
X107452381Y-57223809D02*
X106452381Y-57223809D01*
X106595238Y-57128571D01*
X106690476Y-57033333D01*
X106738095Y-56938095D01*
X106452381Y-58366667D02*
X106452381Y-58176190D01*
X106500000Y-58080952D01*
X106547619Y-58033333D01*
X106690476Y-57938095D01*
X106880952Y-57890476D01*
X107261905Y-57890476D01*
X107357143Y-57938095D01*
X107404762Y-57985714D01*
X107452381Y-58080952D01*
X107452381Y-58271429D01*
X107404762Y-58366667D01*
X107357143Y-58414286D01*
X107261905Y-58461905D01*
X107023810Y-58461905D01*
X106928571Y-58414286D01*
X106880952Y-58366667D01*
X106833333Y-58271429D01*
X106833333Y-58080952D01*
X106880952Y-57985714D01*
X106928571Y-57938095D01*
X107023810Y-57890476D01*
X126652381Y-55985714D02*
X125652381Y-55985714D01*
X125652381Y-56223809D01*
X125700000Y-56366667D01*
X125795238Y-56461905D01*
X125890476Y-56509524D01*
X126080952Y-56557143D01*
X126223810Y-56557143D01*
X126414286Y-56509524D01*
X126509524Y-56461905D01*
X126604762Y-56366667D01*
X126652381Y-56223809D01*
X126652381Y-55985714D01*
X126652381Y-57509524D02*
X126652381Y-56938095D01*
X126652381Y-57223809D02*
X125652381Y-57223809D01*
X125795238Y-57128571D01*
X125890476Y-57033333D01*
X125938095Y-56938095D01*
X125652381Y-57842857D02*
X125652381Y-58509524D01*
X126652381Y-58080952D01*
X145652381Y-55985714D02*
X144652381Y-55985714D01*
X144652381Y-56223809D01*
X144700000Y-56366667D01*
X144795238Y-56461905D01*
X144890476Y-56509524D01*
X145080952Y-56557143D01*
X145223810Y-56557143D01*
X145414286Y-56509524D01*
X145509524Y-56461905D01*
X145604762Y-56366667D01*
X145652381Y-56223809D01*
X145652381Y-55985714D01*
X145652381Y-57509524D02*
X145652381Y-56938095D01*
X145652381Y-57223809D02*
X144652381Y-57223809D01*
X144795238Y-57128571D01*
X144890476Y-57033333D01*
X144938095Y-56938095D01*
X145080952Y-58080952D02*
X145033333Y-57985714D01*
X144985714Y-57938095D01*
X144890476Y-57890476D01*
X144842857Y-57890476D01*
X144747619Y-57938095D01*
X144700000Y-57985714D01*
X144652381Y-58080952D01*
X144652381Y-58271429D01*
X144700000Y-58366667D01*
X144747619Y-58414286D01*
X144842857Y-58461905D01*
X144890476Y-58461905D01*
X144985714Y-58414286D01*
X145033333Y-58366667D01*
X145080952Y-58271429D01*
X145080952Y-58080952D01*
X145128571Y-57985714D01*
X145176190Y-57938095D01*
X145271429Y-57890476D01*
X145461905Y-57890476D01*
X145557143Y-57938095D01*
X145604762Y-57985714D01*
X145652381Y-58080952D01*
X145652381Y-58271429D01*
X145604762Y-58366667D01*
X145557143Y-58414286D01*
X145461905Y-58461905D01*
X145271429Y-58461905D01*
X145176190Y-58414286D01*
X145128571Y-58366667D01*
X145080952Y-58271429D01*
X164652381Y-55985714D02*
X163652381Y-55985714D01*
X163652381Y-56223809D01*
X163700000Y-56366667D01*
X163795238Y-56461905D01*
X163890476Y-56509524D01*
X164080952Y-56557143D01*
X164223810Y-56557143D01*
X164414286Y-56509524D01*
X164509524Y-56461905D01*
X164604762Y-56366667D01*
X164652381Y-56223809D01*
X164652381Y-55985714D01*
X164652381Y-57509524D02*
X164652381Y-56938095D01*
X164652381Y-57223809D02*
X163652381Y-57223809D01*
X163795238Y-57128571D01*
X163890476Y-57033333D01*
X163938095Y-56938095D01*
X164652381Y-57985714D02*
X164652381Y-58176190D01*
X164604762Y-58271429D01*
X164557143Y-58319048D01*
X164414286Y-58414286D01*
X164223810Y-58461905D01*
X163842857Y-58461905D01*
X163747619Y-58414286D01*
X163700000Y-58366667D01*
X163652381Y-58271429D01*
X163652381Y-58080952D01*
X163700000Y-57985714D01*
X163747619Y-57938095D01*
X163842857Y-57890476D01*
X164080952Y-57890476D01*
X164176190Y-57938095D01*
X164223810Y-57985714D01*
X164271429Y-58080952D01*
X164271429Y-58271429D01*
X164223810Y-58366667D01*
X164176190Y-58414286D01*
X164080952Y-58461905D01*
X183652381Y-55985714D02*
X182652381Y-55985714D01*
X182652381Y-56223809D01*
X182700000Y-56366667D01*
X182795238Y-56461905D01*
X182890476Y-56509524D01*
X183080952Y-56557143D01*
X183223810Y-56557143D01*
X183414286Y-56509524D01*
X183509524Y-56461905D01*
X183604762Y-56366667D01*
X183652381Y-56223809D01*
X183652381Y-55985714D01*
X182747619Y-56938095D02*
X182700000Y-56985714D01*
X182652381Y-57080952D01*
X182652381Y-57319048D01*
X182700000Y-57414286D01*
X182747619Y-57461905D01*
X182842857Y-57509524D01*
X182938095Y-57509524D01*
X183080952Y-57461905D01*
X183652381Y-56890476D01*
X183652381Y-57509524D01*
X182652381Y-58128571D02*
X182652381Y-58223810D01*
X182700000Y-58319048D01*
X182747619Y-58366667D01*
X182842857Y-58414286D01*
X183033333Y-58461905D01*
X183271429Y-58461905D01*
X183461905Y-58414286D01*
X183557143Y-58366667D01*
X183604762Y-58319048D01*
X183652381Y-58223810D01*
X183652381Y-58128571D01*
X183604762Y-58033333D01*
X183557143Y-57985714D01*
X183461905Y-57938095D01*
X183271429Y-57890476D01*
X183033333Y-57890476D01*
X182842857Y-57938095D01*
X182747619Y-57985714D01*
X182700000Y-58033333D01*
X182652381Y-58128571D01*
X202652381Y-55985714D02*
X201652381Y-55985714D01*
X201652381Y-56223809D01*
X201700000Y-56366667D01*
X201795238Y-56461905D01*
X201890476Y-56509524D01*
X202080952Y-56557143D01*
X202223810Y-56557143D01*
X202414286Y-56509524D01*
X202509524Y-56461905D01*
X202604762Y-56366667D01*
X202652381Y-56223809D01*
X202652381Y-55985714D01*
X201747619Y-56938095D02*
X201700000Y-56985714D01*
X201652381Y-57080952D01*
X201652381Y-57319048D01*
X201700000Y-57414286D01*
X201747619Y-57461905D01*
X201842857Y-57509524D01*
X201938095Y-57509524D01*
X202080952Y-57461905D01*
X202652381Y-56890476D01*
X202652381Y-57509524D01*
X202652381Y-58461905D02*
X202652381Y-57890476D01*
X202652381Y-58176190D02*
X201652381Y-58176190D01*
X201795238Y-58080952D01*
X201890476Y-57985714D01*
X201938095Y-57890476D01*
X221852381Y-55985714D02*
X220852381Y-55985714D01*
X220852381Y-56223809D01*
X220900000Y-56366667D01*
X220995238Y-56461905D01*
X221090476Y-56509524D01*
X221280952Y-56557143D01*
X221423810Y-56557143D01*
X221614286Y-56509524D01*
X221709524Y-56461905D01*
X221804762Y-56366667D01*
X221852381Y-56223809D01*
X221852381Y-55985714D01*
X220947619Y-56938095D02*
X220900000Y-56985714D01*
X220852381Y-57080952D01*
X220852381Y-57319048D01*
X220900000Y-57414286D01*
X220947619Y-57461905D01*
X221042857Y-57509524D01*
X221138095Y-57509524D01*
X221280952Y-57461905D01*
X221852381Y-56890476D01*
X221852381Y-57509524D01*
X220947619Y-57890476D02*
X220900000Y-57938095D01*
X220852381Y-58033333D01*
X220852381Y-58271429D01*
X220900000Y-58366667D01*
X220947619Y-58414286D01*
X221042857Y-58461905D01*
X221138095Y-58461905D01*
X221280952Y-58414286D01*
X221852381Y-57842857D01*
X221852381Y-58461905D01*
X248052381Y-55985714D02*
X247052381Y-55985714D01*
X247052381Y-56223809D01*
X247100000Y-56366667D01*
X247195238Y-56461905D01*
X247290476Y-56509524D01*
X247480952Y-56557143D01*
X247623810Y-56557143D01*
X247814286Y-56509524D01*
X247909524Y-56461905D01*
X248004762Y-56366667D01*
X248052381Y-56223809D01*
X248052381Y-55985714D01*
X247147619Y-56938095D02*
X247100000Y-56985714D01*
X247052381Y-57080952D01*
X247052381Y-57319048D01*
X247100000Y-57414286D01*
X247147619Y-57461905D01*
X247242857Y-57509524D01*
X247338095Y-57509524D01*
X247480952Y-57461905D01*
X248052381Y-56890476D01*
X248052381Y-57509524D01*
X247052381Y-57842857D02*
X247052381Y-58461905D01*
X247433333Y-58128571D01*
X247433333Y-58271429D01*
X247480952Y-58366667D01*
X247528571Y-58414286D01*
X247623810Y-58461905D01*
X247861905Y-58461905D01*
X247957143Y-58414286D01*
X248004762Y-58366667D01*
X248052381Y-58271429D01*
X248052381Y-57985714D01*
X248004762Y-57890476D01*
X247957143Y-57842857D01*
X52852381Y-74985714D02*
X51852381Y-74985714D01*
X51852381Y-75223809D01*
X51900000Y-75366667D01*
X51995238Y-75461905D01*
X52090476Y-75509524D01*
X52280952Y-75557143D01*
X52423810Y-75557143D01*
X52614286Y-75509524D01*
X52709524Y-75461905D01*
X52804762Y-75366667D01*
X52852381Y-75223809D01*
X52852381Y-74985714D01*
X51947619Y-75938095D02*
X51900000Y-75985714D01*
X51852381Y-76080952D01*
X51852381Y-76319048D01*
X51900000Y-76414286D01*
X51947619Y-76461905D01*
X52042857Y-76509524D01*
X52138095Y-76509524D01*
X52280952Y-76461905D01*
X52852381Y-75890476D01*
X52852381Y-76509524D01*
X52185714Y-77366667D02*
X52852381Y-77366667D01*
X51804762Y-77128571D02*
X52519048Y-76890476D01*
X52519048Y-77509524D01*
X78852381Y-74985714D02*
X77852381Y-74985714D01*
X77852381Y-75223809D01*
X77900000Y-75366667D01*
X77995238Y-75461905D01*
X78090476Y-75509524D01*
X78280952Y-75557143D01*
X78423810Y-75557143D01*
X78614286Y-75509524D01*
X78709524Y-75461905D01*
X78804762Y-75366667D01*
X78852381Y-75223809D01*
X78852381Y-74985714D01*
X77947619Y-75938095D02*
X77900000Y-75985714D01*
X77852381Y-76080952D01*
X77852381Y-76319048D01*
X77900000Y-76414286D01*
X77947619Y-76461905D01*
X78042857Y-76509524D01*
X78138095Y-76509524D01*
X78280952Y-76461905D01*
X78852381Y-75890476D01*
X78852381Y-76509524D01*
X77852381Y-77414286D02*
X77852381Y-76938095D01*
X78328571Y-76890476D01*
X78280952Y-76938095D01*
X78233333Y-77033333D01*
X78233333Y-77271429D01*
X78280952Y-77366667D01*
X78328571Y-77414286D01*
X78423810Y-77461905D01*
X78661905Y-77461905D01*
X78757143Y-77414286D01*
X78804762Y-77366667D01*
X78852381Y-77271429D01*
X78852381Y-77033333D01*
X78804762Y-76938095D01*
X78757143Y-76890476D01*
X97852381Y-74985714D02*
X96852381Y-74985714D01*
X96852381Y-75223809D01*
X96900000Y-75366667D01*
X96995238Y-75461905D01*
X97090476Y-75509524D01*
X97280952Y-75557143D01*
X97423810Y-75557143D01*
X97614286Y-75509524D01*
X97709524Y-75461905D01*
X97804762Y-75366667D01*
X97852381Y-75223809D01*
X97852381Y-74985714D01*
X96947619Y-75938095D02*
X96900000Y-75985714D01*
X96852381Y-76080952D01*
X96852381Y-76319048D01*
X96900000Y-76414286D01*
X96947619Y-76461905D01*
X97042857Y-76509524D01*
X97138095Y-76509524D01*
X97280952Y-76461905D01*
X97852381Y-75890476D01*
X97852381Y-76509524D01*
X96852381Y-77366667D02*
X96852381Y-77176190D01*
X96900000Y-77080952D01*
X96947619Y-77033333D01*
X97090476Y-76938095D01*
X97280952Y-76890476D01*
X97661905Y-76890476D01*
X97757143Y-76938095D01*
X97804762Y-76985714D01*
X97852381Y-77080952D01*
X97852381Y-77271429D01*
X97804762Y-77366667D01*
X97757143Y-77414286D01*
X97661905Y-77461905D01*
X97423810Y-77461905D01*
X97328571Y-77414286D01*
X97280952Y-77366667D01*
X97233333Y-77271429D01*
X97233333Y-77080952D01*
X97280952Y-76985714D01*
X97328571Y-76938095D01*
X97423810Y-76890476D01*
X117052381Y-74985714D02*
X116052381Y-74985714D01*
X116052381Y-75223809D01*
X116100000Y-75366667D01*
X116195238Y-75461905D01*
X116290476Y-75509524D01*
X116480952Y-75557143D01*
X116623810Y-75557143D01*
X116814286Y-75509524D01*
X116909524Y-75461905D01*
X117004762Y-75366667D01*
X117052381Y-75223809D01*
X117052381Y-74985714D01*
X116147619Y-75938095D02*
X116100000Y-75985714D01*
X116052381Y-76080952D01*
X116052381Y-76319048D01*
X116100000Y-76414286D01*
X116147619Y-76461905D01*
X116242857Y-76509524D01*
X116338095Y-76509524D01*
X116480952Y-76461905D01*
X117052381Y-75890476D01*
X117052381Y-76509524D01*
X116052381Y-76842857D02*
X116052381Y-77509524D01*
X117052381Y-77080952D01*
X136052381Y-74985714D02*
X135052381Y-74985714D01*
X135052381Y-75223809D01*
X135100000Y-75366667D01*
X135195238Y-75461905D01*
X135290476Y-75509524D01*
X135480952Y-75557143D01*
X135623810Y-75557143D01*
X135814286Y-75509524D01*
X135909524Y-75461905D01*
X136004762Y-75366667D01*
X136052381Y-75223809D01*
X136052381Y-74985714D01*
X135147619Y-75938095D02*
X135100000Y-75985714D01*
X135052381Y-76080952D01*
X135052381Y-76319048D01*
X135100000Y-76414286D01*
X135147619Y-76461905D01*
X135242857Y-76509524D01*
X135338095Y-76509524D01*
X135480952Y-76461905D01*
X136052381Y-75890476D01*
X136052381Y-76509524D01*
X135480952Y-77080952D02*
X135433333Y-76985714D01*
X135385714Y-76938095D01*
X135290476Y-76890476D01*
X135242857Y-76890476D01*
X135147619Y-76938095D01*
X135100000Y-76985714D01*
X135052381Y-77080952D01*
X135052381Y-77271429D01*
X135100000Y-77366667D01*
X135147619Y-77414286D01*
X135242857Y-77461905D01*
X135290476Y-77461905D01*
X135385714Y-77414286D01*
X135433333Y-77366667D01*
X135480952Y-77271429D01*
X135480952Y-77080952D01*
X135528571Y-76985714D01*
X135576190Y-76938095D01*
X135671429Y-76890476D01*
X135861905Y-76890476D01*
X135957143Y-76938095D01*
X136004762Y-76985714D01*
X136052381Y-77080952D01*
X136052381Y-77271429D01*
X136004762Y-77366667D01*
X135957143Y-77414286D01*
X135861905Y-77461905D01*
X135671429Y-77461905D01*
X135576190Y-77414286D01*
X135528571Y-77366667D01*
X135480952Y-77271429D01*
X155252381Y-74985714D02*
X154252381Y-74985714D01*
X154252381Y-75223809D01*
X154300000Y-75366667D01*
X154395238Y-75461905D01*
X154490476Y-75509524D01*
X154680952Y-75557143D01*
X154823810Y-75557143D01*
X155014286Y-75509524D01*
X155109524Y-75461905D01*
X155204762Y-75366667D01*
X155252381Y-75223809D01*
X155252381Y-74985714D01*
X154347619Y-75938095D02*
X154300000Y-75985714D01*
X154252381Y-76080952D01*
X154252381Y-76319048D01*
X154300000Y-76414286D01*
X154347619Y-76461905D01*
X154442857Y-76509524D01*
X154538095Y-76509524D01*
X154680952Y-76461905D01*
X155252381Y-75890476D01*
X155252381Y-76509524D01*
X155252381Y-76985714D02*
X155252381Y-77176190D01*
X155204762Y-77271429D01*
X155157143Y-77319048D01*
X155014286Y-77414286D01*
X154823810Y-77461905D01*
X154442857Y-77461905D01*
X154347619Y-77414286D01*
X154300000Y-77366667D01*
X154252381Y-77271429D01*
X154252381Y-77080952D01*
X154300000Y-76985714D01*
X154347619Y-76938095D01*
X154442857Y-76890476D01*
X154680952Y-76890476D01*
X154776190Y-76938095D01*
X154823810Y-76985714D01*
X154871429Y-77080952D01*
X154871429Y-77271429D01*
X154823810Y-77366667D01*
X154776190Y-77414286D01*
X154680952Y-77461905D01*
X174052381Y-74985714D02*
X173052381Y-74985714D01*
X173052381Y-75223809D01*
X173100000Y-75366667D01*
X173195238Y-75461905D01*
X173290476Y-75509524D01*
X173480952Y-75557143D01*
X173623810Y-75557143D01*
X173814286Y-75509524D01*
X173909524Y-75461905D01*
X174004762Y-75366667D01*
X174052381Y-75223809D01*
X174052381Y-74985714D01*
X173052381Y-75890476D02*
X173052381Y-76509524D01*
X173433333Y-76176190D01*
X173433333Y-76319048D01*
X173480952Y-76414286D01*
X173528571Y-76461905D01*
X173623810Y-76509524D01*
X173861905Y-76509524D01*
X173957143Y-76461905D01*
X174004762Y-76414286D01*
X174052381Y-76319048D01*
X174052381Y-76033333D01*
X174004762Y-75938095D01*
X173957143Y-75890476D01*
X173052381Y-77128571D02*
X173052381Y-77223810D01*
X173100000Y-77319048D01*
X173147619Y-77366667D01*
X173242857Y-77414286D01*
X173433333Y-77461905D01*
X173671429Y-77461905D01*
X173861905Y-77414286D01*
X173957143Y-77366667D01*
X174004762Y-77319048D01*
X174052381Y-77223810D01*
X174052381Y-77128571D01*
X174004762Y-77033333D01*
X173957143Y-76985714D01*
X173861905Y-76938095D01*
X173671429Y-76890476D01*
X173433333Y-76890476D01*
X173242857Y-76938095D01*
X173147619Y-76985714D01*
X173100000Y-77033333D01*
X173052381Y-77128571D01*
X193052381Y-74985714D02*
X192052381Y-74985714D01*
X192052381Y-75223809D01*
X192100000Y-75366667D01*
X192195238Y-75461905D01*
X192290476Y-75509524D01*
X192480952Y-75557143D01*
X192623810Y-75557143D01*
X192814286Y-75509524D01*
X192909524Y-75461905D01*
X193004762Y-75366667D01*
X193052381Y-75223809D01*
X193052381Y-74985714D01*
X192052381Y-75890476D02*
X192052381Y-76509524D01*
X192433333Y-76176190D01*
X192433333Y-76319048D01*
X192480952Y-76414286D01*
X192528571Y-76461905D01*
X192623810Y-76509524D01*
X192861905Y-76509524D01*
X192957143Y-76461905D01*
X193004762Y-76414286D01*
X193052381Y-76319048D01*
X193052381Y-76033333D01*
X193004762Y-75938095D01*
X192957143Y-75890476D01*
X193052381Y-77461905D02*
X193052381Y-76890476D01*
X193052381Y-77176190D02*
X192052381Y-77176190D01*
X192195238Y-77080952D01*
X192290476Y-76985714D01*
X192338095Y-76890476D01*
X212452381Y-74985714D02*
X211452381Y-74985714D01*
X211452381Y-75223809D01*
X211500000Y-75366667D01*
X211595238Y-75461905D01*
X211690476Y-75509524D01*
X211880952Y-75557143D01*
X212023810Y-75557143D01*
X212214286Y-75509524D01*
X212309524Y-75461905D01*
X212404762Y-75366667D01*
X212452381Y-75223809D01*
X212452381Y-74985714D01*
X211452381Y-75890476D02*
X211452381Y-76509524D01*
X211833333Y-76176190D01*
X211833333Y-76319048D01*
X211880952Y-76414286D01*
X211928571Y-76461905D01*
X212023810Y-76509524D01*
X212261905Y-76509524D01*
X212357143Y-76461905D01*
X212404762Y-76414286D01*
X212452381Y-76319048D01*
X212452381Y-76033333D01*
X212404762Y-75938095D01*
X212357143Y-75890476D01*
X211547619Y-76890476D02*
X211500000Y-76938095D01*
X211452381Y-77033333D01*
X211452381Y-77271429D01*
X211500000Y-77366667D01*
X211547619Y-77414286D01*
X211642857Y-77461905D01*
X211738095Y-77461905D01*
X211880952Y-77414286D01*
X212452381Y-76842857D01*
X212452381Y-77461905D01*
X233852381Y-74985714D02*
X232852381Y-74985714D01*
X232852381Y-75223809D01*
X232900000Y-75366667D01*
X232995238Y-75461905D01*
X233090476Y-75509524D01*
X233280952Y-75557143D01*
X233423810Y-75557143D01*
X233614286Y-75509524D01*
X233709524Y-75461905D01*
X233804762Y-75366667D01*
X233852381Y-75223809D01*
X233852381Y-74985714D01*
X232852381Y-75890476D02*
X232852381Y-76509524D01*
X233233333Y-76176190D01*
X233233333Y-76319048D01*
X233280952Y-76414286D01*
X233328571Y-76461905D01*
X233423810Y-76509524D01*
X233661905Y-76509524D01*
X233757143Y-76461905D01*
X233804762Y-76414286D01*
X233852381Y-76319048D01*
X233852381Y-76033333D01*
X233804762Y-75938095D01*
X233757143Y-75890476D01*
X232852381Y-76842857D02*
X232852381Y-77461905D01*
X233233333Y-77128571D01*
X233233333Y-77271429D01*
X233280952Y-77366667D01*
X233328571Y-77414286D01*
X233423810Y-77461905D01*
X233661905Y-77461905D01*
X233757143Y-77414286D01*
X233804762Y-77366667D01*
X233852381Y-77271429D01*
X233852381Y-76985714D01*
X233804762Y-76890476D01*
X233757143Y-76842857D01*
X255052381Y-74985714D02*
X254052381Y-74985714D01*
X254052381Y-75223809D01*
X254100000Y-75366667D01*
X254195238Y-75461905D01*
X254290476Y-75509524D01*
X254480952Y-75557143D01*
X254623810Y-75557143D01*
X254814286Y-75509524D01*
X254909524Y-75461905D01*
X255004762Y-75366667D01*
X255052381Y-75223809D01*
X255052381Y-74985714D01*
X254052381Y-75890476D02*
X254052381Y-76509524D01*
X254433333Y-76176190D01*
X254433333Y-76319048D01*
X254480952Y-76414286D01*
X254528571Y-76461905D01*
X254623810Y-76509524D01*
X254861905Y-76509524D01*
X254957143Y-76461905D01*
X255004762Y-76414286D01*
X255052381Y-76319048D01*
X255052381Y-76033333D01*
X255004762Y-75938095D01*
X254957143Y-75890476D01*
X254385714Y-77366667D02*
X255052381Y-77366667D01*
X254004762Y-77128571D02*
X254719048Y-76890476D01*
X254719048Y-77509524D01*
X47852381Y-93985714D02*
X46852381Y-93985714D01*
X46852381Y-94223809D01*
X46900000Y-94366667D01*
X46995238Y-94461905D01*
X47090476Y-94509524D01*
X47280952Y-94557143D01*
X47423810Y-94557143D01*
X47614286Y-94509524D01*
X47709524Y-94461905D01*
X47804762Y-94366667D01*
X47852381Y-94223809D01*
X47852381Y-93985714D01*
X46852381Y-94890476D02*
X46852381Y-95509524D01*
X47233333Y-95176190D01*
X47233333Y-95319048D01*
X47280952Y-95414286D01*
X47328571Y-95461905D01*
X47423810Y-95509524D01*
X47661905Y-95509524D01*
X47757143Y-95461905D01*
X47804762Y-95414286D01*
X47852381Y-95319048D01*
X47852381Y-95033333D01*
X47804762Y-94938095D01*
X47757143Y-94890476D01*
X46852381Y-96414286D02*
X46852381Y-95938095D01*
X47328571Y-95890476D01*
X47280952Y-95938095D01*
X47233333Y-96033333D01*
X47233333Y-96271429D01*
X47280952Y-96366667D01*
X47328571Y-96414286D01*
X47423810Y-96461905D01*
X47661905Y-96461905D01*
X47757143Y-96414286D01*
X47804762Y-96366667D01*
X47852381Y-96271429D01*
X47852381Y-96033333D01*
X47804762Y-95938095D01*
X47757143Y-95890476D01*
X69452381Y-93985714D02*
X68452381Y-93985714D01*
X68452381Y-94223809D01*
X68500000Y-94366667D01*
X68595238Y-94461905D01*
X68690476Y-94509524D01*
X68880952Y-94557143D01*
X69023810Y-94557143D01*
X69214286Y-94509524D01*
X69309524Y-94461905D01*
X69404762Y-94366667D01*
X69452381Y-94223809D01*
X69452381Y-93985714D01*
X68452381Y-94890476D02*
X68452381Y-95509524D01*
X68833333Y-95176190D01*
X68833333Y-95319048D01*
X68880952Y-95414286D01*
X68928571Y-95461905D01*
X69023810Y-95509524D01*
X69261905Y-95509524D01*
X69357143Y-95461905D01*
X69404762Y-95414286D01*
X69452381Y-95319048D01*
X69452381Y-95033333D01*
X69404762Y-94938095D01*
X69357143Y-94890476D01*
X68452381Y-96366667D02*
X68452381Y-96176190D01*
X68500000Y-96080952D01*
X68547619Y-96033333D01*
X68690476Y-95938095D01*
X68880952Y-95890476D01*
X69261905Y-95890476D01*
X69357143Y-95938095D01*
X69404762Y-95985714D01*
X69452381Y-96080952D01*
X69452381Y-96271429D01*
X69404762Y-96366667D01*
X69357143Y-96414286D01*
X69261905Y-96461905D01*
X69023810Y-96461905D01*
X68928571Y-96414286D01*
X68880952Y-96366667D01*
X68833333Y-96271429D01*
X68833333Y-96080952D01*
X68880952Y-95985714D01*
X68928571Y-95938095D01*
X69023810Y-95890476D01*
X90852381Y-93985714D02*
X89852381Y-93985714D01*
X89852381Y-94223809D01*
X89900000Y-94366667D01*
X89995238Y-94461905D01*
X90090476Y-94509524D01*
X90280952Y-94557143D01*
X90423810Y-94557143D01*
X90614286Y-94509524D01*
X90709524Y-94461905D01*
X90804762Y-94366667D01*
X90852381Y-94223809D01*
X90852381Y-93985714D01*
X89852381Y-94890476D02*
X89852381Y-95509524D01*
X90233333Y-95176190D01*
X90233333Y-95319048D01*
X90280952Y-95414286D01*
X90328571Y-95461905D01*
X90423810Y-95509524D01*
X90661905Y-95509524D01*
X90757143Y-95461905D01*
X90804762Y-95414286D01*
X90852381Y-95319048D01*
X90852381Y-95033333D01*
X90804762Y-94938095D01*
X90757143Y-94890476D01*
X89852381Y-95842857D02*
X89852381Y-96509524D01*
X90852381Y-96080952D01*
X129052381Y-93985714D02*
X128052381Y-93985714D01*
X128052381Y-94223809D01*
X128100000Y-94366667D01*
X128195238Y-94461905D01*
X128290476Y-94509524D01*
X128480952Y-94557143D01*
X128623810Y-94557143D01*
X128814286Y-94509524D01*
X128909524Y-94461905D01*
X129004762Y-94366667D01*
X129052381Y-94223809D01*
X129052381Y-93985714D01*
X128052381Y-94890476D02*
X128052381Y-95509524D01*
X128433333Y-95176190D01*
X128433333Y-95319048D01*
X128480952Y-95414286D01*
X128528571Y-95461905D01*
X128623810Y-95509524D01*
X128861905Y-95509524D01*
X128957143Y-95461905D01*
X129004762Y-95414286D01*
X129052381Y-95319048D01*
X129052381Y-95033333D01*
X129004762Y-94938095D01*
X128957143Y-94890476D01*
X128480952Y-96080952D02*
X128433333Y-95985714D01*
X128385714Y-95938095D01*
X128290476Y-95890476D01*
X128242857Y-95890476D01*
X128147619Y-95938095D01*
X128100000Y-95985714D01*
X128052381Y-96080952D01*
X128052381Y-96271429D01*
X128100000Y-96366667D01*
X128147619Y-96414286D01*
X128242857Y-96461905D01*
X128290476Y-96461905D01*
X128385714Y-96414286D01*
X128433333Y-96366667D01*
X128480952Y-96271429D01*
X128480952Y-96080952D01*
X128528571Y-95985714D01*
X128576190Y-95938095D01*
X128671429Y-95890476D01*
X128861905Y-95890476D01*
X128957143Y-95938095D01*
X129004762Y-95985714D01*
X129052381Y-96080952D01*
X129052381Y-96271429D01*
X129004762Y-96366667D01*
X128957143Y-96414286D01*
X128861905Y-96461905D01*
X128671429Y-96461905D01*
X128576190Y-96414286D01*
X128528571Y-96366667D01*
X128480952Y-96271429D01*
X157652381Y-93985714D02*
X156652381Y-93985714D01*
X156652381Y-94223809D01*
X156700000Y-94366667D01*
X156795238Y-94461905D01*
X156890476Y-94509524D01*
X157080952Y-94557143D01*
X157223810Y-94557143D01*
X157414286Y-94509524D01*
X157509524Y-94461905D01*
X157604762Y-94366667D01*
X157652381Y-94223809D01*
X157652381Y-93985714D01*
X156652381Y-94890476D02*
X156652381Y-95509524D01*
X157033333Y-95176190D01*
X157033333Y-95319048D01*
X157080952Y-95414286D01*
X157128571Y-95461905D01*
X157223810Y-95509524D01*
X157461905Y-95509524D01*
X157557143Y-95461905D01*
X157604762Y-95414286D01*
X157652381Y-95319048D01*
X157652381Y-95033333D01*
X157604762Y-94938095D01*
X157557143Y-94890476D01*
X157652381Y-95985714D02*
X157652381Y-96176190D01*
X157604762Y-96271429D01*
X157557143Y-96319048D01*
X157414286Y-96414286D01*
X157223810Y-96461905D01*
X156842857Y-96461905D01*
X156747619Y-96414286D01*
X156700000Y-96366667D01*
X156652381Y-96271429D01*
X156652381Y-96080952D01*
X156700000Y-95985714D01*
X156747619Y-95938095D01*
X156842857Y-95890476D01*
X157080952Y-95890476D01*
X157176190Y-95938095D01*
X157223810Y-95985714D01*
X157271429Y-96080952D01*
X157271429Y-96271429D01*
X157223810Y-96366667D01*
X157176190Y-96414286D01*
X157080952Y-96461905D01*
X159452381Y-93985714D02*
X158452381Y-93985714D01*
X158452381Y-94223809D01*
X158500000Y-94366667D01*
X158595238Y-94461905D01*
X158690476Y-94509524D01*
X158880952Y-94557143D01*
X159023810Y-94557143D01*
X159214286Y-94509524D01*
X159309524Y-94461905D01*
X159404762Y-94366667D01*
X159452381Y-94223809D01*
X159452381Y-93985714D01*
X158785714Y-95414286D02*
X159452381Y-95414286D01*
X158404762Y-95176190D02*
X159119048Y-94938095D01*
X159119048Y-95557143D01*
X158452381Y-96128571D02*
X158452381Y-96223810D01*
X158500000Y-96319048D01*
X158547619Y-96366667D01*
X158642857Y-96414286D01*
X158833333Y-96461905D01*
X159071429Y-96461905D01*
X159261905Y-96414286D01*
X159357143Y-96366667D01*
X159404762Y-96319048D01*
X159452381Y-96223810D01*
X159452381Y-96128571D01*
X159404762Y-96033333D01*
X159357143Y-95985714D01*
X159261905Y-95938095D01*
X159071429Y-95890476D01*
X158833333Y-95890476D01*
X158642857Y-95938095D01*
X158547619Y-95985714D01*
X158500000Y-96033333D01*
X158452381Y-96128571D01*
X209852381Y-93985714D02*
X208852381Y-93985714D01*
X208852381Y-94223809D01*
X208900000Y-94366667D01*
X208995238Y-94461905D01*
X209090476Y-94509524D01*
X209280952Y-94557143D01*
X209423810Y-94557143D01*
X209614286Y-94509524D01*
X209709524Y-94461905D01*
X209804762Y-94366667D01*
X209852381Y-94223809D01*
X209852381Y-93985714D01*
X209185714Y-95414286D02*
X209852381Y-95414286D01*
X208804762Y-95176190D02*
X209519048Y-94938095D01*
X209519048Y-95557143D01*
X209852381Y-96461905D02*
X209852381Y-95890476D01*
X209852381Y-96176190D02*
X208852381Y-96176190D01*
X208995238Y-96080952D01*
X209090476Y-95985714D01*
X209138095Y-95890476D01*
X231252381Y-93985714D02*
X230252381Y-93985714D01*
X230252381Y-94223809D01*
X230300000Y-94366667D01*
X230395238Y-94461905D01*
X230490476Y-94509524D01*
X230680952Y-94557143D01*
X230823810Y-94557143D01*
X231014286Y-94509524D01*
X231109524Y-94461905D01*
X231204762Y-94366667D01*
X231252381Y-94223809D01*
X231252381Y-93985714D01*
X230585714Y-95414286D02*
X231252381Y-95414286D01*
X230204762Y-95176190D02*
X230919048Y-94938095D01*
X230919048Y-95557143D01*
X230347619Y-95890476D02*
X230300000Y-95938095D01*
X230252381Y-96033333D01*
X230252381Y-96271429D01*
X230300000Y-96366667D01*
X230347619Y-96414286D01*
X230442857Y-96461905D01*
X230538095Y-96461905D01*
X230680952Y-96414286D01*
X231252381Y-95842857D01*
X231252381Y-96461905D01*
X252852381Y-93985714D02*
X251852381Y-93985714D01*
X251852381Y-94223809D01*
X251900000Y-94366667D01*
X251995238Y-94461905D01*
X252090476Y-94509524D01*
X252280952Y-94557143D01*
X252423810Y-94557143D01*
X252614286Y-94509524D01*
X252709524Y-94461905D01*
X252804762Y-94366667D01*
X252852381Y-94223809D01*
X252852381Y-93985714D01*
X252185714Y-95414286D02*
X252852381Y-95414286D01*
X251804762Y-95176190D02*
X252519048Y-94938095D01*
X252519048Y-95557143D01*
X251852381Y-95842857D02*
X251852381Y-96461905D01*
X252233333Y-96128571D01*
X252233333Y-96271429D01*
X252280952Y-96366667D01*
X252328571Y-96414286D01*
X252423810Y-96461905D01*
X252661905Y-96461905D01*
X252757143Y-96414286D01*
X252804762Y-96366667D01*
X252852381Y-96271429D01*
X252852381Y-95985714D01*
X252804762Y-95890476D01*
X252757143Y-95842857D01*
D12*
X114952381Y-84480953D02*
X114952381Y-84004762D01*
X113952381Y-84004762D01*
X114428571Y-84814286D02*
X114428571Y-85147620D01*
X114952381Y-85290477D02*
X114952381Y-84814286D01*
X113952381Y-84814286D01*
X113952381Y-85290477D01*
X114952381Y-85719048D02*
X113952381Y-85719048D01*
X113952381Y-85957143D01*
X114000000Y-86100001D01*
X114095238Y-86195239D01*
X114190476Y-86242858D01*
X114380952Y-86290477D01*
X114523810Y-86290477D01*
X114714286Y-86242858D01*
X114809524Y-86195239D01*
X114904762Y-86100001D01*
X114952381Y-85957143D01*
X114952381Y-85719048D01*
X114952381Y-87242858D02*
X114952381Y-86671429D01*
X114952381Y-86957143D02*
X113952381Y-86957143D01*
X114095238Y-86861905D01*
X114190476Y-86766667D01*
X114238095Y-86671429D01*
X162352381Y-84480953D02*
X162352381Y-84004762D01*
X161352381Y-84004762D01*
X161828571Y-84814286D02*
X161828571Y-85147620D01*
X162352381Y-85290477D02*
X162352381Y-84814286D01*
X161352381Y-84814286D01*
X161352381Y-85290477D01*
X162352381Y-85719048D02*
X161352381Y-85719048D01*
X161352381Y-85957143D01*
X161400000Y-86100001D01*
X161495238Y-86195239D01*
X161590476Y-86242858D01*
X161780952Y-86290477D01*
X161923810Y-86290477D01*
X162114286Y-86242858D01*
X162209524Y-86195239D01*
X162304762Y-86100001D01*
X162352381Y-85957143D01*
X162352381Y-85719048D01*
X161447619Y-86671429D02*
X161400000Y-86719048D01*
X161352381Y-86814286D01*
X161352381Y-87052382D01*
X161400000Y-87147620D01*
X161447619Y-87195239D01*
X161542857Y-87242858D01*
X161638095Y-87242858D01*
X161780952Y-87195239D01*
X162352381Y-86623810D01*
X162352381Y-87242858D01*
X214752381Y-84480953D02*
X214752381Y-84004762D01*
X213752381Y-84004762D01*
X214228571Y-84814286D02*
X214228571Y-85147620D01*
X214752381Y-85290477D02*
X214752381Y-84814286D01*
X213752381Y-84814286D01*
X213752381Y-85290477D01*
X214752381Y-85719048D02*
X213752381Y-85719048D01*
X213752381Y-85957143D01*
X213800000Y-86100001D01*
X213895238Y-86195239D01*
X213990476Y-86242858D01*
X214180952Y-86290477D01*
X214323810Y-86290477D01*
X214514286Y-86242858D01*
X214609524Y-86195239D01*
X214704762Y-86100001D01*
X214752381Y-85957143D01*
X214752381Y-85719048D01*
X213752381Y-86623810D02*
X213752381Y-87242858D01*
X214133333Y-86909524D01*
X214133333Y-87052382D01*
X214180952Y-87147620D01*
X214228571Y-87195239D01*
X214323810Y-87242858D01*
X214561905Y-87242858D01*
X214657143Y-87195239D01*
X214704762Y-87147620D01*
X214752381Y-87052382D01*
X214752381Y-86766667D01*
X214704762Y-86671429D01*
X214657143Y-86623810D01*
X214752381Y-46480953D02*
X214752381Y-46004762D01*
X213752381Y-46004762D01*
X214228571Y-46814286D02*
X214228571Y-47147620D01*
X214752381Y-47290477D02*
X214752381Y-46814286D01*
X213752381Y-46814286D01*
X213752381Y-47290477D01*
X214752381Y-47719048D02*
X213752381Y-47719048D01*
X213752381Y-47957143D01*
X213800000Y-48100001D01*
X213895238Y-48195239D01*
X213990476Y-48242858D01*
X214180952Y-48290477D01*
X214323810Y-48290477D01*
X214514286Y-48242858D01*
X214609524Y-48195239D01*
X214704762Y-48100001D01*
X214752381Y-47957143D01*
X214752381Y-47719048D01*
X214085714Y-49147620D02*
X214752381Y-49147620D01*
X213704762Y-48909524D02*
X214419048Y-48671429D01*
X214419048Y-49290477D01*
X162552381Y-46480953D02*
X162552381Y-46004762D01*
X161552381Y-46004762D01*
X162028571Y-46814286D02*
X162028571Y-47147620D01*
X162552381Y-47290477D02*
X162552381Y-46814286D01*
X161552381Y-46814286D01*
X161552381Y-47290477D01*
X162552381Y-47719048D02*
X161552381Y-47719048D01*
X161552381Y-47957143D01*
X161600000Y-48100001D01*
X161695238Y-48195239D01*
X161790476Y-48242858D01*
X161980952Y-48290477D01*
X162123810Y-48290477D01*
X162314286Y-48242858D01*
X162409524Y-48195239D01*
X162504762Y-48100001D01*
X162552381Y-47957143D01*
X162552381Y-47719048D01*
X161552381Y-49195239D02*
X161552381Y-48719048D01*
X162028571Y-48671429D01*
X161980952Y-48719048D01*
X161933333Y-48814286D01*
X161933333Y-49052382D01*
X161980952Y-49147620D01*
X162028571Y-49195239D01*
X162123810Y-49242858D01*
X162361905Y-49242858D01*
X162457143Y-49195239D01*
X162504762Y-49147620D01*
X162552381Y-49052382D01*
X162552381Y-48814286D01*
X162504762Y-48719048D01*
X162457143Y-48671429D01*
X114952381Y-46480953D02*
X114952381Y-46004762D01*
X113952381Y-46004762D01*
X114428571Y-46814286D02*
X114428571Y-47147620D01*
X114952381Y-47290477D02*
X114952381Y-46814286D01*
X113952381Y-46814286D01*
X113952381Y-47290477D01*
X114952381Y-47719048D02*
X113952381Y-47719048D01*
X113952381Y-47957143D01*
X114000000Y-48100001D01*
X114095238Y-48195239D01*
X114190476Y-48242858D01*
X114380952Y-48290477D01*
X114523810Y-48290477D01*
X114714286Y-48242858D01*
X114809524Y-48195239D01*
X114904762Y-48100001D01*
X114952381Y-47957143D01*
X114952381Y-47719048D01*
X113952381Y-49147620D02*
X113952381Y-48957143D01*
X114000000Y-48861905D01*
X114047619Y-48814286D01*
X114190476Y-48719048D01*
X114380952Y-48671429D01*
X114761905Y-48671429D01*
X114857143Y-48719048D01*
X114904762Y-48766667D01*
X114952381Y-48861905D01*
X114952381Y-49052382D01*
X114904762Y-49147620D01*
X114857143Y-49195239D01*
X114761905Y-49242858D01*
X114523810Y-49242858D01*
X114428571Y-49195239D01*
X114380952Y-49147620D01*
X114333333Y-49052382D01*
X114333333Y-48861905D01*
X114380952Y-48766667D01*
X114428571Y-48719048D01*
X114523810Y-48671429D01*
X62352381Y-46480953D02*
X62352381Y-46004762D01*
X61352381Y-46004762D01*
X61828571Y-46814286D02*
X61828571Y-47147620D01*
X62352381Y-47290477D02*
X62352381Y-46814286D01*
X61352381Y-46814286D01*
X61352381Y-47290477D01*
X62352381Y-47719048D02*
X61352381Y-47719048D01*
X61352381Y-47957143D01*
X61400000Y-48100001D01*
X61495238Y-48195239D01*
X61590476Y-48242858D01*
X61780952Y-48290477D01*
X61923810Y-48290477D01*
X62114286Y-48242858D01*
X62209524Y-48195239D01*
X62304762Y-48100001D01*
X62352381Y-47957143D01*
X62352381Y-47719048D01*
X61352381Y-48623810D02*
X61352381Y-49290477D01*
X62352381Y-48861905D01*
X62352381Y-84480953D02*
X62352381Y-84004762D01*
X61352381Y-84004762D01*
X61828571Y-84814286D02*
X61828571Y-85147620D01*
X62352381Y-85290477D02*
X62352381Y-84814286D01*
X61352381Y-84814286D01*
X61352381Y-85290477D01*
X62352381Y-85719048D02*
X61352381Y-85719048D01*
X61352381Y-85957143D01*
X61400000Y-86100001D01*
X61495238Y-86195239D01*
X61590476Y-86242858D01*
X61780952Y-86290477D01*
X61923810Y-86290477D01*
X62114286Y-86242858D01*
X62209524Y-86195239D01*
X62304762Y-86100001D01*
X62352381Y-85957143D01*
X62352381Y-85719048D01*
X61780952Y-86861905D02*
X61733333Y-86766667D01*
X61685714Y-86719048D01*
X61590476Y-86671429D01*
X61542857Y-86671429D01*
X61447619Y-86719048D01*
X61400000Y-86766667D01*
X61352381Y-86861905D01*
X61352381Y-87052382D01*
X61400000Y-87147620D01*
X61447619Y-87195239D01*
X61542857Y-87242858D01*
X61590476Y-87242858D01*
X61685714Y-87195239D01*
X61733333Y-87147620D01*
X61780952Y-87052382D01*
X61780952Y-86861905D01*
X61828571Y-86766667D01*
X61876190Y-86719048D01*
X61971429Y-86671429D01*
X62161905Y-86671429D01*
X62257143Y-86719048D01*
X62304762Y-86766667D01*
X62352381Y-86861905D01*
X62352381Y-87052382D01*
X62304762Y-87147620D01*
X62257143Y-87195239D01*
X62161905Y-87242858D01*
X61971429Y-87242858D01*
X61876190Y-87195239D01*
X61828571Y-87147620D01*
X61780952Y-87052382D01*
D13*
X38829619Y-77120762D02*
X38782000Y-77025524D01*
X38686762Y-76930286D01*
X38543905Y-76787429D01*
X38496286Y-76692190D01*
X38496286Y-76596952D01*
X38734381Y-76644571D02*
X38686762Y-76549333D01*
X38591524Y-76454095D01*
X38401048Y-76406476D01*
X38067714Y-76406476D01*
X37877238Y-76454095D01*
X37782000Y-76549333D01*
X37734381Y-76644571D01*
X37734381Y-76835048D01*
X37782000Y-76930286D01*
X37877238Y-77025524D01*
X38067714Y-77073143D01*
X38401048Y-77073143D01*
X38591524Y-77025524D01*
X38686762Y-76930286D01*
X38734381Y-76835048D01*
X38734381Y-76644571D01*
X38734381Y-78025524D02*
X38734381Y-77454095D01*
X38734381Y-77739809D02*
X37734381Y-77739809D01*
X37877238Y-77644571D01*
X37972476Y-77549333D01*
X38020095Y-77454095D01*
X34452381Y-67933334D02*
X33976190Y-67600000D01*
X34452381Y-67361905D02*
X33452381Y-67361905D01*
X33452381Y-67742858D01*
X33500000Y-67838096D01*
X33547619Y-67885715D01*
X33642857Y-67933334D01*
X33785714Y-67933334D01*
X33880952Y-67885715D01*
X33928571Y-67838096D01*
X33976190Y-67742858D01*
X33976190Y-67361905D01*
X34452381Y-68885715D02*
X34452381Y-68314286D01*
X34452381Y-68600000D02*
X33452381Y-68600000D01*
X33595238Y-68504762D01*
X33690476Y-68409524D01*
X33738095Y-68314286D01*
X142752381Y-40357143D02*
X142276190Y-40023809D01*
X142752381Y-39785714D02*
X141752381Y-39785714D01*
X141752381Y-40166667D01*
X141800000Y-40261905D01*
X141847619Y-40309524D01*
X141942857Y-40357143D01*
X142085714Y-40357143D01*
X142180952Y-40309524D01*
X142228571Y-40261905D01*
X142276190Y-40166667D01*
X142276190Y-39785714D01*
X142085714Y-41214286D02*
X142752381Y-41214286D01*
X141704762Y-40976190D02*
X142419048Y-40738095D01*
X142419048Y-41357143D01*
X142085714Y-42166667D02*
X142752381Y-42166667D01*
X141704762Y-41928571D02*
X142419048Y-41690476D01*
X142419048Y-42309524D01*
X140752381Y-40357143D02*
X140276190Y-40023809D01*
X140752381Y-39785714D02*
X139752381Y-39785714D01*
X139752381Y-40166667D01*
X139800000Y-40261905D01*
X139847619Y-40309524D01*
X139942857Y-40357143D01*
X140085714Y-40357143D01*
X140180952Y-40309524D01*
X140228571Y-40261905D01*
X140276190Y-40166667D01*
X140276190Y-39785714D01*
X140085714Y-41214286D02*
X140752381Y-41214286D01*
X139704762Y-40976190D02*
X140419048Y-40738095D01*
X140419048Y-41357143D01*
X139752381Y-42214286D02*
X139752381Y-41738095D01*
X140228571Y-41690476D01*
X140180952Y-41738095D01*
X140133333Y-41833333D01*
X140133333Y-42071429D01*
X140180952Y-42166667D01*
X140228571Y-42214286D01*
X140323810Y-42261905D01*
X140561905Y-42261905D01*
X140657143Y-42214286D01*
X140704762Y-42166667D01*
X140752381Y-42071429D01*
X140752381Y-41833333D01*
X140704762Y-41738095D01*
X140657143Y-41690476D01*
X98752381Y-95007143D02*
X98276190Y-94673809D01*
X98752381Y-94435714D02*
X97752381Y-94435714D01*
X97752381Y-94816667D01*
X97800000Y-94911905D01*
X97847619Y-94959524D01*
X97942857Y-95007143D01*
X98085714Y-95007143D01*
X98180952Y-94959524D01*
X98228571Y-94911905D01*
X98276190Y-94816667D01*
X98276190Y-94435714D01*
X98085714Y-95864286D02*
X98752381Y-95864286D01*
X97704762Y-95626190D02*
X98419048Y-95388095D01*
X98419048Y-96007143D01*
X97752381Y-96816667D02*
X97752381Y-96626190D01*
X97800000Y-96530952D01*
X97847619Y-96483333D01*
X97990476Y-96388095D01*
X98180952Y-96340476D01*
X98561905Y-96340476D01*
X98657143Y-96388095D01*
X98704762Y-96435714D01*
X98752381Y-96530952D01*
X98752381Y-96721429D01*
X98704762Y-96816667D01*
X98657143Y-96864286D01*
X98561905Y-96911905D01*
X98323810Y-96911905D01*
X98228571Y-96864286D01*
X98180952Y-96816667D01*
X98133333Y-96721429D01*
X98133333Y-96530952D01*
X98180952Y-96435714D01*
X98228571Y-96388095D01*
X98323810Y-96340476D01*
X195992857Y-83502381D02*
X196326191Y-83026190D01*
X196564286Y-83502381D02*
X196564286Y-82502381D01*
X196183333Y-82502381D01*
X196088095Y-82550000D01*
X196040476Y-82597619D01*
X195992857Y-82692857D01*
X195992857Y-82835714D01*
X196040476Y-82930952D01*
X196088095Y-82978571D01*
X196183333Y-83026190D01*
X196564286Y-83026190D01*
X195135714Y-82835714D02*
X195135714Y-83502381D01*
X195373810Y-82454762D02*
X195611905Y-83169048D01*
X194992857Y-83169048D01*
X194707143Y-82502381D02*
X194040476Y-82502381D01*
X194469048Y-83502381D01*
X108833333Y-91954762D02*
X108690476Y-92002381D01*
X108452380Y-92002381D01*
X108357142Y-91954762D01*
X108309523Y-91907143D01*
X108261904Y-91811905D01*
X108261904Y-91716667D01*
X108309523Y-91621429D01*
X108357142Y-91573810D01*
X108452380Y-91526190D01*
X108642857Y-91478571D01*
X108738095Y-91430952D01*
X108785714Y-91383333D01*
X108833333Y-91288095D01*
X108833333Y-91192857D01*
X108785714Y-91097619D01*
X108738095Y-91050000D01*
X108642857Y-91002381D01*
X108404761Y-91002381D01*
X108261904Y-91050000D01*
X107928571Y-91002381D02*
X107690476Y-92002381D01*
X107499999Y-91288095D01*
X107309523Y-92002381D01*
X107071428Y-91002381D01*
X106166666Y-92002381D02*
X106738095Y-92002381D01*
X106452381Y-92002381D02*
X106452381Y-91002381D01*
X106547619Y-91145238D01*
X106642857Y-91240476D01*
X106738095Y-91288095D01*
X189666666Y-102557143D02*
X189714285Y-102604762D01*
X189857142Y-102652381D01*
X189952380Y-102652381D01*
X190095238Y-102604762D01*
X190190476Y-102509524D01*
X190238095Y-102414286D01*
X190285714Y-102223810D01*
X190285714Y-102080952D01*
X190238095Y-101890476D01*
X190190476Y-101795238D01*
X190095238Y-101700000D01*
X189952380Y-101652381D01*
X189857142Y-101652381D01*
X189714285Y-101700000D01*
X189666666Y-101747619D01*
X188809523Y-101652381D02*
X189000000Y-101652381D01*
X189095238Y-101700000D01*
X189142857Y-101747619D01*
X189238095Y-101890476D01*
X189285714Y-102080952D01*
X189285714Y-102461905D01*
X189238095Y-102557143D01*
X189190476Y-102604762D01*
X189095238Y-102652381D01*
X188904761Y-102652381D01*
X188809523Y-102604762D01*
X188761904Y-102557143D01*
X188714285Y-102461905D01*
X188714285Y-102223810D01*
X188761904Y-102128571D01*
X188809523Y-102080952D01*
X188904761Y-102033333D01*
X189095238Y-102033333D01*
X189190476Y-102080952D01*
X189238095Y-102128571D01*
X189285714Y-102223810D01*
X197657143Y-99033334D02*
X197704762Y-98985715D01*
X197752381Y-98842858D01*
X197752381Y-98747620D01*
X197704762Y-98604762D01*
X197609524Y-98509524D01*
X197514286Y-98461905D01*
X197323810Y-98414286D01*
X197180952Y-98414286D01*
X196990476Y-98461905D01*
X196895238Y-98509524D01*
X196800000Y-98604762D01*
X196752381Y-98747620D01*
X196752381Y-98842858D01*
X196800000Y-98985715D01*
X196847619Y-99033334D01*
X196752381Y-99366667D02*
X196752381Y-100033334D01*
X197752381Y-99604762D01*
X185466666Y-105557143D02*
X185514285Y-105604762D01*
X185657142Y-105652381D01*
X185752380Y-105652381D01*
X185895238Y-105604762D01*
X185990476Y-105509524D01*
X186038095Y-105414286D01*
X186085714Y-105223810D01*
X186085714Y-105080952D01*
X186038095Y-104890476D01*
X185990476Y-104795238D01*
X185895238Y-104700000D01*
X185752380Y-104652381D01*
X185657142Y-104652381D01*
X185514285Y-104700000D01*
X185466666Y-104747619D01*
X184895238Y-105080952D02*
X184990476Y-105033333D01*
X185038095Y-104985714D01*
X185085714Y-104890476D01*
X185085714Y-104842857D01*
X185038095Y-104747619D01*
X184990476Y-104700000D01*
X184895238Y-104652381D01*
X184704761Y-104652381D01*
X184609523Y-104700000D01*
X184561904Y-104747619D01*
X184514285Y-104842857D01*
X184514285Y-104890476D01*
X184561904Y-104985714D01*
X184609523Y-105033333D01*
X184704761Y-105080952D01*
X184895238Y-105080952D01*
X184990476Y-105128571D01*
X185038095Y-105176190D01*
X185085714Y-105271429D01*
X185085714Y-105461905D01*
X185038095Y-105557143D01*
X184990476Y-105604762D01*
X184895238Y-105652381D01*
X184704761Y-105652381D01*
X184609523Y-105604762D01*
X184561904Y-105557143D01*
X184514285Y-105461905D01*
X184514285Y-105271429D01*
X184561904Y-105176190D01*
X184609523Y-105128571D01*
X184704761Y-105080952D01*
X185291666Y-83432143D02*
X185339285Y-83479762D01*
X185482142Y-83527381D01*
X185577380Y-83527381D01*
X185720238Y-83479762D01*
X185815476Y-83384524D01*
X185863095Y-83289286D01*
X185910714Y-83098810D01*
X185910714Y-82955952D01*
X185863095Y-82765476D01*
X185815476Y-82670238D01*
X185720238Y-82575000D01*
X185577380Y-82527381D01*
X185482142Y-82527381D01*
X185339285Y-82575000D01*
X185291666Y-82622619D01*
X184815476Y-83527381D02*
X184625000Y-83527381D01*
X184529761Y-83479762D01*
X184482142Y-83432143D01*
X184386904Y-83289286D01*
X184339285Y-83098810D01*
X184339285Y-82717857D01*
X184386904Y-82622619D01*
X184434523Y-82575000D01*
X184529761Y-82527381D01*
X184720238Y-82527381D01*
X184815476Y-82575000D01*
X184863095Y-82622619D01*
X184910714Y-82717857D01*
X184910714Y-82955952D01*
X184863095Y-83051190D01*
X184815476Y-83098810D01*
X184720238Y-83146429D01*
X184529761Y-83146429D01*
X184434523Y-83098810D01*
X184386904Y-83051190D01*
X184339285Y-82955952D01*
X195552381Y-94113095D02*
X196361905Y-94113095D01*
X196457143Y-94160714D01*
X196504762Y-94208333D01*
X196552381Y-94303571D01*
X196552381Y-94494048D01*
X196504762Y-94589286D01*
X196457143Y-94636905D01*
X196361905Y-94684524D01*
X195552381Y-94684524D01*
X196552381Y-95684524D02*
X196552381Y-95113095D01*
X196552381Y-95398809D02*
X195552381Y-95398809D01*
X195695238Y-95303571D01*
X195790476Y-95208333D01*
X195838095Y-95113095D01*
D15*
X142942805Y-37528881D02*
X142942805Y-38675245D01*
X143019229Y-38904518D01*
X143172078Y-39057366D01*
X143401351Y-39133791D01*
X143554199Y-39133791D01*
X141337894Y-39133791D02*
X142254986Y-39133791D01*
X141796440Y-39133791D02*
X141796440Y-37528881D01*
X141949289Y-37758154D01*
X142102137Y-37911002D01*
X142254986Y-37987426D01*
X154001503Y-24797290D02*
X154001503Y-26095321D01*
X153925148Y-26248031D01*
X153848794Y-26324385D01*
X153696084Y-26400740D01*
X153390665Y-26400740D01*
X153237956Y-26324385D01*
X153161601Y-26248031D01*
X153085246Y-26095321D01*
X153085246Y-24797290D01*
X152398053Y-26324385D02*
X152168989Y-26400740D01*
X151787215Y-26400740D01*
X151634505Y-26324385D01*
X151558151Y-26248031D01*
X151481796Y-26095321D01*
X151481796Y-25942612D01*
X151558151Y-25789902D01*
X151634505Y-25713547D01*
X151787215Y-25637193D01*
X152092634Y-25560838D01*
X152245343Y-25484483D01*
X152321698Y-25408128D01*
X152398053Y-25255419D01*
X152398053Y-25102709D01*
X152321698Y-24950000D01*
X152245343Y-24873645D01*
X152092634Y-24797290D01*
X151710860Y-24797290D01*
X151481796Y-24873645D01*
X150260120Y-25560838D02*
X150031056Y-25637193D01*
X149954701Y-25713547D01*
X149878346Y-25866257D01*
X149878346Y-26095321D01*
X149954701Y-26248031D01*
X150031056Y-26324385D01*
X150183765Y-26400740D01*
X150794603Y-26400740D01*
X150794603Y-24797290D01*
X150260120Y-24797290D01*
X150107410Y-24873645D01*
X150031056Y-24950000D01*
X149954701Y-25102709D01*
X149954701Y-25255419D01*
X150031056Y-25408128D01*
X150107410Y-25484483D01*
X150260120Y-25560838D01*
X150794603Y-25560838D01*
X149572927Y-26553450D02*
X148351251Y-26553450D01*
X147969477Y-26400740D02*
X147969477Y-25331774D01*
X147969477Y-25484483D02*
X147893122Y-25408128D01*
X147740413Y-25331774D01*
X147511349Y-25331774D01*
X147358639Y-25408128D01*
X147282284Y-25560838D01*
X147282284Y-26400740D01*
X147282284Y-25560838D02*
X147205930Y-25408128D01*
X147053220Y-25331774D01*
X146824156Y-25331774D01*
X146671446Y-25408128D01*
X146595091Y-25560838D01*
X146595091Y-26400740D01*
X145831544Y-26400740D02*
X145831544Y-25331774D01*
X145831544Y-24797290D02*
X145907899Y-24873645D01*
X145831544Y-24950000D01*
X145755189Y-24873645D01*
X145831544Y-24797290D01*
X145831544Y-24950000D01*
X145067996Y-25331774D02*
X145067996Y-26400740D01*
X145067996Y-25484483D02*
X144991641Y-25408128D01*
X144838932Y-25331774D01*
X144609868Y-25331774D01*
X144457158Y-25408128D01*
X144380803Y-25560838D01*
X144380803Y-26400740D01*
X143617256Y-26400740D02*
X143617256Y-25331774D01*
X143617256Y-24797290D02*
X143693611Y-24873645D01*
X143617256Y-24950000D01*
X143540901Y-24873645D01*
X143617256Y-24797290D01*
X143617256Y-24950000D01*
X143235482Y-26553450D02*
X142013806Y-26553450D01*
X141632032Y-26400740D02*
X141632032Y-25331774D01*
X141632032Y-25484483D02*
X141555677Y-25408128D01*
X141402968Y-25331774D01*
X141173904Y-25331774D01*
X141021194Y-25408128D01*
X140944839Y-25560838D01*
X140944839Y-26400740D01*
X140944839Y-25560838D02*
X140868485Y-25408128D01*
X140715775Y-25331774D01*
X140486711Y-25331774D01*
X140334001Y-25408128D01*
X140257646Y-25560838D01*
X140257646Y-26400740D01*
X139494099Y-26400740D02*
X139494099Y-25331774D01*
X139494099Y-24797290D02*
X139570454Y-24873645D01*
X139494099Y-24950000D01*
X139417744Y-24873645D01*
X139494099Y-24797290D01*
X139494099Y-24950000D01*
X138043358Y-26324385D02*
X138196068Y-26400740D01*
X138501487Y-26400740D01*
X138654196Y-26324385D01*
X138730551Y-26248031D01*
X138806906Y-26095321D01*
X138806906Y-25637193D01*
X138730551Y-25484483D01*
X138654196Y-25408128D01*
X138501487Y-25331774D01*
X138196068Y-25331774D01*
X138043358Y-25408128D01*
X137356165Y-26400740D02*
X137356165Y-25331774D01*
X137356165Y-25637193D02*
X137279810Y-25484483D01*
X137203456Y-25408128D01*
X137050746Y-25331774D01*
X136898037Y-25331774D01*
X136134489Y-26400740D02*
X136287198Y-26324385D01*
X136363553Y-26248031D01*
X136439908Y-26095321D01*
X136439908Y-25637193D01*
X136363553Y-25484483D01*
X136287198Y-25408128D01*
X136134489Y-25331774D01*
X135905425Y-25331774D01*
X135752715Y-25408128D01*
X135676360Y-25484483D01*
X135600006Y-25637193D01*
X135600006Y-26095321D01*
X135676360Y-26248031D01*
X135752715Y-26324385D01*
X135905425Y-26400740D01*
X136134489Y-26400740D01*
X135294587Y-26553450D02*
X134072911Y-26553450D01*
X133156654Y-25560838D02*
X132927590Y-25637193D01*
X132851235Y-25713547D01*
X132774880Y-25866257D01*
X132774880Y-26095321D01*
X132851235Y-26248031D01*
X132927590Y-26324385D01*
X133080299Y-26400740D01*
X133691137Y-26400740D01*
X133691137Y-24797290D01*
X133156654Y-24797290D01*
X133003944Y-24873645D01*
X132927590Y-24950000D01*
X132851235Y-25102709D01*
X132851235Y-25255419D01*
X132927590Y-25408128D01*
X133003944Y-25484483D01*
X133156654Y-25560838D01*
X133691137Y-25560838D01*
M02*
