M48
METRIC,TZ
T1C0.900
T2C1.750
T3C3.048
T4C3.988
%
G90
G05
T1
X140.59Y-32.93
X144.99Y-32.93
T2
X33.02Y-38.1
X35.401Y-57.15
X35.401Y-95.25
X40.164Y-76.2
X43.18Y-38.1
X45.561Y-57.15
X45.561Y-95.25
X50.324Y-76.2
X52.07Y-38.1
X56.832Y-57.15
X56.832Y-95.25
X62.23Y-38.1
X66.358Y-76.2
X66.992Y-57.15
X66.992Y-95.25
X71.12Y-38.1
X75.882Y-57.15
X75.882Y-95.25
X76.517Y-76.2
X78.264Y-95.25
X81.28Y-38.1
X85.407Y-76.2
X86.042Y-57.15
X86.042Y-95.25
X88.424Y-95.25
X90.17Y-38.1
X94.932Y-57.15
X95.567Y-76.2
X100.33Y-38.1
X104.458Y-76.2
X105.092Y-57.15
X109.22Y-38.1
X113.982Y-57.15
X114.618Y-76.2
X116.364Y-95.25
X119.38Y-38.1
X123.508Y-76.2
X124.142Y-57.15
X126.524Y-95.25
X128.27Y-38.1
X133.032Y-57.15
X133.668Y-76.2
X138.43Y-38.1
X142.558Y-76.2
X143.192Y-57.15
X144.939Y-95.25
X147.32Y-38.1
X152.082Y-57.15
X152.718Y-76.2
X155.099Y-95.25
X157.48Y-38.1
X161.608Y-76.2
X162.242Y-57.15
X163.989Y-95.25
X166.37Y-38.1
X171.132Y-57.15
X171.768Y-76.2
X174.149Y-95.25
X176.53Y-38.1
X180.658Y-76.2
X181.292Y-57.15
X185.42Y-38.1
X190.182Y-57.15
X190.818Y-76.2
X195.58Y-38.1
X197.326Y-95.25
X199.708Y-76.2
X200.342Y-57.15
X204.47Y-38.1
X207.486Y-95.25
X209.232Y-57.15
X209.868Y-76.2
X214.63Y-38.1
X216.376Y-95.25
X218.758Y-95.25
X219.392Y-57.15
X221.139Y-76.2
X223.52Y-38.1
X226.536Y-95.25
X228.918Y-95.25
X231.299Y-76.2
X233.68Y-38.1
X235.426Y-57.15
X240.189Y-95.25
X242.57Y-38.1
X242.57Y-76.2
X245.586Y-57.15
X250.349Y-95.25
X252.73Y-38.1
X252.73Y-76.2
T3
X100.019Y-88.265
X109.538Y-88.265
X133.35Y-88.265
X157.163Y-88.265
X180.975Y-88.265
X200.019Y-88.265
T4
X38.1Y-38.1
X40.481Y-57.15
X40.481Y-95.25
X45.244Y-76.2
X57.15Y-38.1
X61.912Y-57.15
X61.912Y-95.25
X71.438Y-76.2
X76.2Y-38.1
X80.962Y-57.15
X80.962Y-95.25
X83.344Y-95.25
X90.487Y-76.2
X95.25Y-38.1
X100.012Y-57.15
X100.019Y-103.505
X109.538Y-103.505
X109.538Y-76.2
X114.3Y-38.1
X119.062Y-57.15
X121.444Y-95.25
X128.588Y-76.2
X133.35Y-38.1
X133.35Y-103.505
X138.112Y-57.15
X147.638Y-76.2
X150.019Y-95.25
X152.4Y-38.1
X157.162Y-57.15
X157.163Y-103.505
X166.688Y-76.2
X169.069Y-95.25
X171.45Y-38.1
X176.212Y-57.15
X180.975Y-103.505
X185.738Y-76.2
X190.5Y-38.1
X195.262Y-57.15
X200.019Y-103.505
X202.406Y-95.25
X204.788Y-76.2
X209.55Y-38.1
X214.312Y-57.15
X221.456Y-95.25
X223.838Y-95.25
X226.219Y-76.2
X228.6Y-38.1
X240.506Y-57.15
X245.269Y-95.25
X247.65Y-38.1
X247.65Y-76.2
T0
M30
