G04 #@! TF.FileFunction,Soldermask,Top*
%FSLAX46Y46*%
G04 Gerber Fmt 4.6, Leading zero omitted, Abs format (unit mm)*
G04 Created by KiCad (PCBNEW 4.0.7) date 06/01/18 20:48:48*
%MOMM*%
%LPD*%
G01*
G04 APERTURE LIST*
%ADD10C,0.100000*%
%ADD11C,4.387800*%
%ADD12C,2.150000*%
%ADD13C,4.800000*%
%ADD14R,2.100000X2.100000*%
%ADD15O,2.100000X2.100000*%
%ADD16C,3.448000*%
G04 APERTURE END LIST*
D10*
D11*
X185738000Y-76200000D03*
D12*
X180658000Y-76200000D03*
X190818000Y-76200000D03*
D11*
X83343800Y-95250000D03*
D12*
X78263800Y-95250000D03*
X88423800Y-95250000D03*
D13*
X142890000Y-85730000D03*
X142880000Y-47640000D03*
X238110000Y-85730000D03*
X238120000Y-47620000D03*
X47620000Y-85730000D03*
D14*
X137960000Y-104170000D03*
D15*
X137960000Y-101630000D03*
X140500000Y-104170000D03*
X140500000Y-101630000D03*
X143040000Y-104170000D03*
X143040000Y-101630000D03*
D11*
X38100000Y-38100000D03*
D12*
X33020000Y-38100000D03*
X43180000Y-38100000D03*
D11*
X57150000Y-38100000D03*
D12*
X52070000Y-38100000D03*
X62230000Y-38100000D03*
D11*
X76200000Y-38100000D03*
D12*
X71120000Y-38100000D03*
X81280000Y-38100000D03*
D11*
X95250000Y-38100000D03*
D12*
X90170000Y-38100000D03*
X100330000Y-38100000D03*
D11*
X114300000Y-38100000D03*
D12*
X109220000Y-38100000D03*
X119380000Y-38100000D03*
D11*
X133350000Y-38100000D03*
D12*
X128270000Y-38100000D03*
X138430000Y-38100000D03*
D11*
X152400000Y-38100000D03*
D12*
X157480000Y-38100000D03*
X147320000Y-38100000D03*
D11*
X171450000Y-38100000D03*
D12*
X166370000Y-38100000D03*
X176530000Y-38100000D03*
D11*
X190500000Y-38100000D03*
D12*
X185420000Y-38100000D03*
X195580000Y-38100000D03*
D11*
X209550000Y-38100000D03*
D12*
X204470000Y-38100000D03*
X214630000Y-38100000D03*
D11*
X228600000Y-38100000D03*
D12*
X223520000Y-38100000D03*
X233680000Y-38100000D03*
D11*
X247650000Y-38100000D03*
D12*
X242570000Y-38100000D03*
X252730000Y-38100000D03*
D11*
X40481200Y-57150000D03*
D12*
X35401200Y-57150000D03*
X45561200Y-57150000D03*
D11*
X61912500Y-57150000D03*
D12*
X56832500Y-57150000D03*
X66992500Y-57150000D03*
D11*
X80962500Y-57150000D03*
D12*
X75882500Y-57150000D03*
X86042500Y-57150000D03*
D11*
X100012000Y-57150000D03*
D12*
X94932000Y-57150000D03*
X105092000Y-57150000D03*
D11*
X119062000Y-57150000D03*
D12*
X113982000Y-57150000D03*
X124142000Y-57150000D03*
D11*
X138112000Y-57150000D03*
D12*
X133032000Y-57150000D03*
X143192000Y-57150000D03*
D11*
X157162000Y-57150000D03*
D12*
X152082000Y-57150000D03*
X162242000Y-57150000D03*
D11*
X176212000Y-57150000D03*
D12*
X171132000Y-57150000D03*
X181292000Y-57150000D03*
D11*
X195262000Y-57150000D03*
D12*
X190182000Y-57150000D03*
X200342000Y-57150000D03*
D11*
X214312000Y-57150000D03*
D12*
X209232000Y-57150000D03*
X219392000Y-57150000D03*
D11*
X240506000Y-57150000D03*
D12*
X235426000Y-57150000D03*
X245586000Y-57150000D03*
D11*
X45243800Y-76200000D03*
D12*
X40163800Y-76200000D03*
X50323800Y-76200000D03*
D11*
X71437500Y-76200000D03*
D12*
X66357500Y-76200000D03*
X76517500Y-76200000D03*
D11*
X90487500Y-76200000D03*
D12*
X85407500Y-76200000D03*
X95567500Y-76200000D03*
D11*
X109538000Y-76200000D03*
D12*
X104458000Y-76200000D03*
X114618000Y-76200000D03*
D11*
X128588000Y-76200000D03*
D12*
X123508000Y-76200000D03*
X133668000Y-76200000D03*
D11*
X147638000Y-76200000D03*
D12*
X142558000Y-76200000D03*
X152718000Y-76200000D03*
D11*
X166688000Y-76200000D03*
D12*
X161608000Y-76200000D03*
X171768000Y-76200000D03*
D11*
X204788000Y-76200000D03*
D12*
X199708000Y-76200000D03*
X209868000Y-76200000D03*
D11*
X226219000Y-76200000D03*
D12*
X221139000Y-76200000D03*
X231299000Y-76200000D03*
D11*
X247650000Y-76200000D03*
D12*
X242570000Y-76200000D03*
X252730000Y-76200000D03*
D11*
X40481200Y-95250000D03*
D12*
X35401200Y-95250000D03*
X45561200Y-95250000D03*
D11*
X61912500Y-95250000D03*
D12*
X56832500Y-95250000D03*
X66992500Y-95250000D03*
D11*
X80962500Y-95250000D03*
D12*
X75882500Y-95250000D03*
X86042500Y-95250000D03*
D11*
X121444000Y-95250000D03*
D12*
X116364000Y-95250000D03*
X126524000Y-95250000D03*
D16*
X109537750Y-88265000D03*
X133350250Y-88265000D03*
D11*
X109537750Y-103505000D03*
X133350250Y-103505000D03*
X150019000Y-95250000D03*
D12*
X144939000Y-95250000D03*
X155099000Y-95250000D03*
D16*
X100019100Y-88265000D03*
X200018900Y-88265000D03*
D11*
X100019100Y-103505000D03*
X200018900Y-103505000D03*
X169069000Y-95250000D03*
D12*
X163989000Y-95250000D03*
X174149000Y-95250000D03*
D16*
X157162750Y-88265000D03*
X180975250Y-88265000D03*
D11*
X157162750Y-103505000D03*
X180975250Y-103505000D03*
X202406000Y-95250000D03*
D12*
X197326000Y-95250000D03*
X207486000Y-95250000D03*
D11*
X223838000Y-95250000D03*
D12*
X218758000Y-95250000D03*
X228918000Y-95250000D03*
D11*
X221456000Y-95250000D03*
D12*
X216376000Y-95250000D03*
X226536000Y-95250000D03*
D11*
X245269000Y-95250000D03*
D12*
X240189000Y-95250000D03*
X250349000Y-95250000D03*
D13*
X47625000Y-47625000D03*
M02*
